<?xml version="1.0" encoding="utf-8"?>
<svg xmlns="http://www.w3.org/2000/svg" xmlns:xlink="http://www.w3.org/1999/xlink" width="600" height="400" viewBox="0 0 2400 1600">
<defs>
  <clipPath id="clip720">
    <rect x="0" y="0" width="2400" height="1600"/>
  </clipPath>
</defs>
<path clip-path="url(#clip720)" d="
M0 1600 L2400 1600 L2400 0 L0 0  Z
  " fill="#ffffff" fill-rule="evenodd" fill-opacity="1"/>
<defs>
  <clipPath id="clip721">
    <rect x="480" y="0" width="1681" height="1600"/>
  </clipPath>
</defs>
<path clip-path="url(#clip720)" d="
M144.168 1486.45 L2352.76 1486.45 L2352.76 47.2441 L144.168 47.2441  Z
  " fill="#ffffff" fill-rule="evenodd" fill-opacity="1"/>
<defs>
  <clipPath id="clip722">
    <rect x="144" y="47" width="2210" height="1440"/>
  </clipPath>
</defs>
<polyline clip-path="url(#clip722)" style="stroke:#000000; stroke-width:2; stroke-opacity:0.1; fill:none" points="
  206.675,1486.45 206.675,47.2441 
  "/>
<polyline clip-path="url(#clip722)" style="stroke:#000000; stroke-width:2; stroke-opacity:0.1; fill:none" points="
  727.568,1486.45 727.568,47.2441 
  "/>
<polyline clip-path="url(#clip722)" style="stroke:#000000; stroke-width:2; stroke-opacity:0.1; fill:none" points="
  1248.46,1486.45 1248.46,47.2441 
  "/>
<polyline clip-path="url(#clip722)" style="stroke:#000000; stroke-width:2; stroke-opacity:0.1; fill:none" points="
  1769.36,1486.45 1769.36,47.2441 
  "/>
<polyline clip-path="url(#clip722)" style="stroke:#000000; stroke-width:2; stroke-opacity:0.1; fill:none" points="
  2290.25,1486.45 2290.25,47.2441 
  "/>
<polyline clip-path="url(#clip720)" style="stroke:#000000; stroke-width:4; stroke-opacity:1; fill:none" points="
  144.168,1486.45 2352.76,1486.45 
  "/>
<polyline clip-path="url(#clip720)" style="stroke:#000000; stroke-width:4; stroke-opacity:1; fill:none" points="
  206.675,1486.45 206.675,1469.18 
  "/>
<polyline clip-path="url(#clip720)" style="stroke:#000000; stroke-width:4; stroke-opacity:1; fill:none" points="
  727.568,1486.45 727.568,1469.18 
  "/>
<polyline clip-path="url(#clip720)" style="stroke:#000000; stroke-width:4; stroke-opacity:1; fill:none" points="
  1248.46,1486.45 1248.46,1469.18 
  "/>
<polyline clip-path="url(#clip720)" style="stroke:#000000; stroke-width:4; stroke-opacity:1; fill:none" points="
  1769.36,1486.45 1769.36,1469.18 
  "/>
<polyline clip-path="url(#clip720)" style="stroke:#000000; stroke-width:4; stroke-opacity:1; fill:none" points="
  2290.25,1486.45 2290.25,1469.18 
  "/>
<path clip-path="url(#clip720)" d="M 0 0 M188.191 1515.64 Q184.58 1515.64 182.751 1519.2 Q180.946 1522.75 180.946 1529.87 Q180.946 1536.98 182.751 1540.55 Q184.58 1544.09 188.191 1544.09 Q191.826 1544.09 193.631 1540.55 Q195.46 1536.98 195.46 1529.87 Q195.46 1522.75 193.631 1519.2 Q191.826 1515.64 188.191 1515.64 M188.191 1511.93 Q194.001 1511.93 197.057 1516.54 Q200.136 1521.12 200.136 1529.87 Q200.136 1538.6 197.057 1543.21 Q194.001 1547.79 188.191 1547.79 Q182.381 1547.79 179.302 1543.21 Q176.247 1538.6 176.247 1529.87 Q176.247 1521.12 179.302 1516.54 Q182.381 1511.93 188.191 1511.93 Z" fill="#000000" fill-rule="evenodd" fill-opacity="1" /><path clip-path="url(#clip720)" d="M 0 0 M205.205 1541.24 L210.089 1541.24 L210.089 1547.12 L205.205 1547.12 L205.205 1541.24 Z" fill="#000000" fill-rule="evenodd" fill-opacity="1" /><path clip-path="url(#clip720)" d="M 0 0 M225.159 1515.64 Q221.548 1515.64 219.719 1519.2 Q217.913 1522.75 217.913 1529.87 Q217.913 1536.98 219.719 1540.55 Q221.548 1544.09 225.159 1544.09 Q228.793 1544.09 230.598 1540.55 Q232.427 1536.98 232.427 1529.87 Q232.427 1522.75 230.598 1519.2 Q228.793 1515.64 225.159 1515.64 M225.159 1511.93 Q230.969 1511.93 234.024 1516.54 Q237.103 1521.12 237.103 1529.87 Q237.103 1538.6 234.024 1543.21 Q230.969 1547.79 225.159 1547.79 Q219.349 1547.79 216.27 1543.21 Q213.214 1538.6 213.214 1529.87 Q213.214 1521.12 216.27 1516.54 Q219.349 1511.93 225.159 1511.93 Z" fill="#000000" fill-rule="evenodd" fill-opacity="1" /><path clip-path="url(#clip720)" d="M 0 0 M704.235 1543.18 L720.555 1543.18 L720.555 1547.12 L698.61 1547.12 L698.61 1543.18 Q701.272 1540.43 705.856 1535.8 Q710.462 1531.15 711.643 1529.81 Q713.888 1527.28 714.768 1525.55 Q715.67 1523.79 715.67 1522.1 Q715.67 1519.34 713.726 1517.61 Q711.805 1515.87 708.703 1515.87 Q706.504 1515.87 704.05 1516.63 Q701.619 1517.4 698.842 1518.95 L698.842 1514.23 Q701.666 1513.09 704.119 1512.51 Q706.573 1511.93 708.61 1511.93 Q713.981 1511.93 717.175 1514.62 Q720.369 1517.31 720.369 1521.8 Q720.369 1523.93 719.559 1525.85 Q718.772 1527.74 716.666 1530.34 Q716.087 1531.01 712.985 1534.23 Q709.883 1537.42 704.235 1543.18 Z" fill="#000000" fill-rule="evenodd" fill-opacity="1" /><path clip-path="url(#clip720)" d="M 0 0 M725.624 1541.24 L730.508 1541.24 L730.508 1547.12 L725.624 1547.12 L725.624 1541.24 Z" fill="#000000" fill-rule="evenodd" fill-opacity="1" /><path clip-path="url(#clip720)" d="M 0 0 M735.624 1512.56 L753.98 1512.56 L753.98 1516.5 L739.906 1516.5 L739.906 1524.97 Q740.925 1524.62 741.943 1524.46 Q742.962 1524.27 743.98 1524.27 Q749.767 1524.27 753.147 1527.44 Q756.527 1530.62 756.527 1536.03 Q756.527 1541.61 753.054 1544.71 Q749.582 1547.79 743.263 1547.79 Q741.087 1547.79 738.818 1547.42 Q736.573 1547.05 734.166 1546.31 L734.166 1541.61 Q736.249 1542.74 738.471 1543.3 Q740.693 1543.86 743.17 1543.86 Q747.175 1543.86 749.513 1541.75 Q751.851 1539.64 751.851 1536.03 Q751.851 1532.42 749.513 1530.31 Q747.175 1528.21 743.17 1528.21 Q741.295 1528.21 739.42 1528.62 Q737.568 1529.04 735.624 1529.92 L735.624 1512.56 Z" fill="#000000" fill-rule="evenodd" fill-opacity="1" /><path clip-path="url(#clip720)" d="M 0 0 M1220.26 1512.56 L1238.61 1512.56 L1238.61 1516.5 L1224.54 1516.5 L1224.54 1524.97 Q1225.56 1524.62 1226.58 1524.46 Q1227.59 1524.27 1228.61 1524.27 Q1234.4 1524.27 1237.78 1527.44 Q1241.16 1530.62 1241.16 1536.03 Q1241.16 1541.61 1237.69 1544.71 Q1234.21 1547.79 1227.89 1547.79 Q1225.72 1547.79 1223.45 1547.42 Q1221.21 1547.05 1218.8 1546.31 L1218.8 1541.61 Q1220.88 1542.74 1223.1 1543.3 Q1225.33 1543.86 1227.8 1543.86 Q1231.81 1543.86 1234.14 1541.75 Q1236.48 1539.64 1236.48 1536.03 Q1236.48 1532.42 1234.14 1530.31 Q1231.81 1528.21 1227.8 1528.21 Q1225.93 1528.21 1224.05 1528.62 Q1222.2 1529.04 1220.26 1529.92 L1220.26 1512.56 Z" fill="#000000" fill-rule="evenodd" fill-opacity="1" /><path clip-path="url(#clip720)" d="M 0 0 M1246.23 1541.24 L1251.11 1541.24 L1251.11 1547.12 L1246.23 1547.12 L1246.23 1541.24 Z" fill="#000000" fill-rule="evenodd" fill-opacity="1" /><path clip-path="url(#clip720)" d="M 0 0 M1266.18 1515.64 Q1262.57 1515.64 1260.74 1519.2 Q1258.94 1522.75 1258.94 1529.87 Q1258.94 1536.98 1260.74 1540.55 Q1262.57 1544.09 1266.18 1544.09 Q1269.82 1544.09 1271.62 1540.55 Q1273.45 1536.98 1273.45 1529.87 Q1273.45 1522.75 1271.62 1519.2 Q1269.82 1515.64 1266.18 1515.64 M1266.18 1511.93 Q1271.99 1511.93 1275.05 1516.54 Q1278.13 1521.12 1278.13 1529.87 Q1278.13 1538.6 1275.05 1543.21 Q1271.99 1547.79 1266.18 1547.79 Q1260.37 1547.79 1257.29 1543.21 Q1254.24 1538.6 1254.24 1529.87 Q1254.24 1521.12 1257.29 1516.54 Q1260.37 1511.93 1266.18 1511.93 Z" fill="#000000" fill-rule="evenodd" fill-opacity="1" /><path clip-path="url(#clip720)" d="M 0 0 M1740.26 1512.56 L1762.48 1512.56 L1762.48 1514.55 L1749.93 1547.12 L1745.05 1547.12 L1756.86 1516.5 L1740.26 1516.5 L1740.26 1512.56 Z" fill="#000000" fill-rule="evenodd" fill-opacity="1" /><path clip-path="url(#clip720)" d="M 0 0 M1767.55 1541.24 L1772.43 1541.24 L1772.43 1547.12 L1767.55 1547.12 L1767.55 1541.24 Z" fill="#000000" fill-rule="evenodd" fill-opacity="1" /><path clip-path="url(#clip720)" d="M 0 0 M1777.55 1512.56 L1795.91 1512.56 L1795.91 1516.5 L1781.83 1516.5 L1781.83 1524.97 Q1782.85 1524.62 1783.87 1524.46 Q1784.89 1524.27 1785.91 1524.27 Q1791.69 1524.27 1795.07 1527.44 Q1798.45 1530.62 1798.45 1536.03 Q1798.45 1541.61 1794.98 1544.71 Q1791.51 1547.79 1785.19 1547.79 Q1783.01 1547.79 1780.74 1547.42 Q1778.5 1547.05 1776.09 1546.31 L1776.09 1541.61 Q1778.17 1542.74 1780.4 1543.3 Q1782.62 1543.86 1785.1 1543.86 Q1789.1 1543.86 1791.44 1541.75 Q1793.78 1539.64 1793.78 1536.03 Q1793.78 1532.42 1791.44 1530.31 Q1789.1 1528.21 1785.1 1528.21 Q1783.22 1528.21 1781.35 1528.62 Q1779.49 1529.04 1777.55 1529.92 L1777.55 1512.56 Z" fill="#000000" fill-rule="evenodd" fill-opacity="1" /><path clip-path="url(#clip720)" d="M 0 0 M2248.64 1543.18 L2256.28 1543.18 L2256.28 1516.82 L2247.97 1518.49 L2247.97 1514.23 L2256.23 1512.56 L2260.91 1512.56 L2260.91 1543.18 L2268.55 1543.18 L2268.55 1547.12 L2248.64 1547.12 L2248.64 1543.18 Z" fill="#000000" fill-rule="evenodd" fill-opacity="1" /><path clip-path="url(#clip720)" d="M 0 0 M2283.62 1515.64 Q2280.01 1515.64 2278.18 1519.2 Q2276.37 1522.75 2276.37 1529.87 Q2276.37 1536.98 2278.18 1540.55 Q2280.01 1544.09 2283.62 1544.09 Q2287.25 1544.09 2289.06 1540.55 Q2290.89 1536.98 2290.89 1529.87 Q2290.89 1522.75 2289.06 1519.2 Q2287.25 1515.64 2283.62 1515.64 M2283.62 1511.93 Q2289.43 1511.93 2292.48 1516.54 Q2295.56 1521.12 2295.56 1529.87 Q2295.56 1538.6 2292.48 1543.21 Q2289.43 1547.79 2283.62 1547.79 Q2277.81 1547.79 2274.73 1543.21 Q2271.67 1538.6 2271.67 1529.87 Q2271.67 1521.12 2274.73 1516.54 Q2277.81 1511.93 2283.62 1511.93 Z" fill="#000000" fill-rule="evenodd" fill-opacity="1" /><path clip-path="url(#clip720)" d="M 0 0 M2300.63 1541.24 L2305.51 1541.24 L2305.51 1547.12 L2300.63 1547.12 L2300.63 1541.24 Z" fill="#000000" fill-rule="evenodd" fill-opacity="1" /><path clip-path="url(#clip720)" d="M 0 0 M2320.58 1515.64 Q2316.97 1515.64 2315.14 1519.2 Q2313.34 1522.75 2313.34 1529.87 Q2313.34 1536.98 2315.14 1540.55 Q2316.97 1544.09 2320.58 1544.09 Q2324.22 1544.09 2326.02 1540.55 Q2327.85 1536.98 2327.85 1529.87 Q2327.85 1522.75 2326.02 1519.2 Q2324.22 1515.64 2320.58 1515.64 M2320.58 1511.93 Q2326.39 1511.93 2329.45 1516.54 Q2332.53 1521.12 2332.53 1529.87 Q2332.53 1538.6 2329.45 1543.21 Q2326.39 1547.79 2320.58 1547.79 Q2314.77 1547.79 2311.7 1543.21 Q2308.64 1538.6 2308.64 1529.87 Q2308.64 1521.12 2311.7 1516.54 Q2314.77 1511.93 2320.58 1511.93 Z" fill="#000000" fill-rule="evenodd" fill-opacity="1" /><polyline clip-path="url(#clip722)" style="stroke:#000000; stroke-width:2; stroke-opacity:0.1; fill:none" points="
  144.168,1445.72 2352.76,1445.72 
  "/>
<polyline clip-path="url(#clip722)" style="stroke:#000000; stroke-width:2; stroke-opacity:0.1; fill:none" points="
  144.168,1219.43 2352.76,1219.43 
  "/>
<polyline clip-path="url(#clip722)" style="stroke:#000000; stroke-width:2; stroke-opacity:0.1; fill:none" points="
  144.168,993.136 2352.76,993.136 
  "/>
<polyline clip-path="url(#clip722)" style="stroke:#000000; stroke-width:2; stroke-opacity:0.1; fill:none" points="
  144.168,766.846 2352.76,766.846 
  "/>
<polyline clip-path="url(#clip722)" style="stroke:#000000; stroke-width:2; stroke-opacity:0.1; fill:none" points="
  144.168,540.556 2352.76,540.556 
  "/>
<polyline clip-path="url(#clip722)" style="stroke:#000000; stroke-width:2; stroke-opacity:0.1; fill:none" points="
  144.168,314.266 2352.76,314.266 
  "/>
<polyline clip-path="url(#clip722)" style="stroke:#000000; stroke-width:2; stroke-opacity:0.1; fill:none" points="
  144.168,87.9763 2352.76,87.9763 
  "/>
<polyline clip-path="url(#clip720)" style="stroke:#000000; stroke-width:4; stroke-opacity:1; fill:none" points="
  144.168,1486.45 144.168,47.2441 
  "/>
<polyline clip-path="url(#clip720)" style="stroke:#000000; stroke-width:4; stroke-opacity:1; fill:none" points="
  144.168,1445.72 170.671,1445.72 
  "/>
<polyline clip-path="url(#clip720)" style="stroke:#000000; stroke-width:4; stroke-opacity:1; fill:none" points="
  144.168,1219.43 170.671,1219.43 
  "/>
<polyline clip-path="url(#clip720)" style="stroke:#000000; stroke-width:4; stroke-opacity:1; fill:none" points="
  144.168,993.136 170.671,993.136 
  "/>
<polyline clip-path="url(#clip720)" style="stroke:#000000; stroke-width:4; stroke-opacity:1; fill:none" points="
  144.168,766.846 170.671,766.846 
  "/>
<polyline clip-path="url(#clip720)" style="stroke:#000000; stroke-width:4; stroke-opacity:1; fill:none" points="
  144.168,540.556 170.671,540.556 
  "/>
<polyline clip-path="url(#clip720)" style="stroke:#000000; stroke-width:4; stroke-opacity:1; fill:none" points="
  144.168,314.266 170.671,314.266 
  "/>
<polyline clip-path="url(#clip720)" style="stroke:#000000; stroke-width:4; stroke-opacity:1; fill:none" points="
  144.168,87.9763 170.671,87.9763 
  "/>
<path clip-path="url(#clip720)" d="M 0 0 M51.5708 1446.17 L81.2466 1446.17 L81.2466 1450.1 L51.5708 1450.1 L51.5708 1446.17 Z" fill="#000000" fill-rule="evenodd" fill-opacity="1" /><path clip-path="url(#clip720)" d="M 0 0 M96.316 1446.58 Q92.9826 1446.58 91.0614 1448.37 Q89.1632 1450.15 89.1632 1453.27 Q89.1632 1456.4 91.0614 1458.18 Q92.9826 1459.96 96.316 1459.96 Q99.6493 1459.96 101.571 1458.18 Q103.492 1456.38 103.492 1453.27 Q103.492 1450.15 101.571 1448.37 Q99.6724 1446.58 96.316 1446.58 M91.6401 1444.59 Q88.6308 1443.85 86.941 1441.79 Q85.2743 1439.73 85.2743 1436.77 Q85.2743 1432.63 88.2141 1430.22 Q91.1771 1427.81 96.316 1427.81 Q101.478 1427.81 104.418 1430.22 Q107.358 1432.63 107.358 1436.77 Q107.358 1439.73 105.668 1441.79 Q104.001 1443.85 101.015 1444.59 Q104.395 1445.38 106.27 1447.67 Q108.168 1449.96 108.168 1453.27 Q108.168 1458.3 105.089 1460.98 Q102.034 1463.67 96.316 1463.67 Q90.5984 1463.67 87.5197 1460.98 Q84.4642 1458.3 84.4642 1453.27 Q84.4642 1449.96 86.3623 1447.67 Q88.2604 1445.38 91.6401 1444.59 M89.9271 1437.21 Q89.9271 1439.89 91.5938 1441.4 Q93.2836 1442.9 96.316 1442.9 Q99.3252 1442.9 101.015 1441.4 Q102.728 1439.89 102.728 1437.21 Q102.728 1434.52 101.015 1433.02 Q99.3252 1431.51 96.316 1431.51 Q93.2836 1431.51 91.5938 1433.02 Q89.9271 1434.52 89.9271 1437.21 Z" fill="#000000" fill-rule="evenodd" fill-opacity="1" /><path clip-path="url(#clip720)" d="M 0 0 M52.381 1219.88 L82.0568 1219.88 L82.0568 1223.81 L52.381 1223.81 L52.381 1219.88 Z" fill="#000000" fill-rule="evenodd" fill-opacity="1" /><path clip-path="url(#clip720)" d="M 0 0 M85.9456 1202.15 L108.168 1202.15 L108.168 1204.14 L95.6215 1236.71 L90.7373 1236.71 L102.543 1206.08 L85.9456 1206.08 L85.9456 1202.15 Z" fill="#000000" fill-rule="evenodd" fill-opacity="1" /><path clip-path="url(#clip720)" d="M 0 0 M51.3162 993.587 L80.992 993.587 L80.992 997.522 L51.3162 997.522 L51.3162 993.587 Z" fill="#000000" fill-rule="evenodd" fill-opacity="1" /><path clip-path="url(#clip720)" d="M 0 0 M96.64 991.272 Q93.4919 991.272 91.6401 993.425 Q89.8114 995.578 89.8114 999.328 Q89.8114 1003.05 91.6401 1005.23 Q93.4919 1007.38 96.64 1007.38 Q99.7882 1007.38 101.617 1005.23 Q103.469 1003.05 103.469 999.328 Q103.469 995.578 101.617 993.425 Q99.7882 991.272 96.64 991.272 M105.922 976.62 L105.922 980.879 Q104.163 980.046 102.358 979.606 Q100.575 979.166 98.8159 979.166 Q94.1863 979.166 91.7326 982.291 Q89.3021 985.416 88.9549 991.735 Q90.3206 989.722 92.3808 988.657 Q94.441 987.569 96.9178 987.569 Q102.126 987.569 105.135 990.74 Q108.168 993.888 108.168 999.328 Q108.168 1004.65 105.02 1007.87 Q101.871 1011.09 96.64 1011.09 Q90.6447 1011.09 87.4734 1006.5 Q84.3021 1001.9 84.3021 993.171 Q84.3021 984.976 88.191 980.115 Q92.0799 975.231 98.6308 975.231 Q100.39 975.231 102.172 975.578 Q103.978 975.925 105.922 976.62 Z" fill="#000000" fill-rule="evenodd" fill-opacity="1" /><path clip-path="url(#clip720)" d="M 0 0 M52.4736 767.297 L82.1494 767.297 L82.1494 771.233 L52.4736 771.233 L52.4736 767.297 Z" fill="#000000" fill-rule="evenodd" fill-opacity="1" /><path clip-path="url(#clip720)" d="M 0 0 M87.2651 749.566 L105.621 749.566 L105.621 753.501 L91.5475 753.501 L91.5475 761.973 Q92.566 761.626 93.5845 761.464 Q94.603 761.279 95.6215 761.279 Q101.409 761.279 104.788 764.45 Q108.168 767.621 108.168 773.038 Q108.168 778.617 104.696 781.719 Q101.223 784.797 94.9039 784.797 Q92.728 784.797 90.4595 784.427 Q88.2141 784.057 85.8068 783.316 L85.8068 778.617 Q87.8901 779.751 90.1123 780.307 Q92.3345 780.862 94.8113 780.862 Q98.8159 780.862 101.154 778.756 Q103.492 776.649 103.492 773.038 Q103.492 769.427 101.154 767.321 Q98.8159 765.214 94.8113 765.214 Q92.9363 765.214 91.0614 765.631 Q89.2095 766.047 87.2651 766.927 L87.2651 749.566 Z" fill="#000000" fill-rule="evenodd" fill-opacity="1" /><path clip-path="url(#clip720)" d="M 0 0 M50.9921 541.007 L80.6679 541.007 L80.6679 544.943 L50.9921 544.943 L50.9921 541.007 Z" fill="#000000" fill-rule="evenodd" fill-opacity="1" /><path clip-path="url(#clip720)" d="M 0 0 M98.5845 527.35 L86.779 545.799 L98.5845 545.799 L98.5845 527.35 M97.3576 523.276 L103.237 523.276 L103.237 545.799 L108.168 545.799 L108.168 549.688 L103.237 549.688 L103.237 557.836 L98.5845 557.836 L98.5845 549.688 L82.9827 549.688 L82.9827 545.174 L97.3576 523.276 Z" fill="#000000" fill-rule="evenodd" fill-opacity="1" /><path clip-path="url(#clip720)" d="M 0 0 M52.1264 314.718 L81.8021 314.718 L81.8021 318.653 L52.1264 318.653 L52.1264 314.718 Z" fill="#000000" fill-rule="evenodd" fill-opacity="1" /><path clip-path="url(#clip720)" d="M 0 0 M101.038 312.912 Q104.395 313.63 106.27 315.898 Q108.168 318.167 108.168 321.5 Q108.168 326.616 104.649 329.417 Q101.131 332.217 94.6493 332.217 Q92.4734 332.217 90.1586 331.778 Q87.8669 331.361 85.4132 330.505 L85.4132 325.991 Q87.3577 327.125 89.6725 327.704 Q91.9873 328.282 94.5104 328.282 Q98.9085 328.282 101.2 326.546 Q103.515 324.81 103.515 321.5 Q103.515 318.444 101.362 316.731 Q99.2326 314.995 95.4132 314.995 L91.3854 314.995 L91.3854 311.153 L95.5984 311.153 Q99.0474 311.153 100.876 309.787 Q102.705 308.398 102.705 305.806 Q102.705 303.144 100.807 301.732 Q98.9317 300.296 95.4132 300.296 Q93.4919 300.296 91.2928 300.713 Q89.0938 301.13 86.4549 302.009 L86.4549 297.843 Q89.1169 297.102 91.4317 296.732 Q93.7697 296.361 95.8298 296.361 Q101.154 296.361 104.256 298.792 Q107.358 301.199 107.358 305.319 Q107.358 308.19 105.714 310.181 Q104.071 312.148 101.038 312.912 Z" fill="#000000" fill-rule="evenodd" fill-opacity="1" /><path clip-path="url(#clip720)" d="M 0 0 M53.0754 88.4277 L82.7512 88.4277 L82.7512 92.3628 L53.0754 92.3628 L53.0754 88.4277 Z" fill="#000000" fill-rule="evenodd" fill-opacity="1" /><path clip-path="url(#clip720)" d="M 0 0 M91.8484 101.321 L108.168 101.321 L108.168 105.256 L86.2234 105.256 L86.2234 101.321 Q88.8854 98.5665 93.4688 93.9369 Q98.0752 89.2841 99.2558 87.9416 Q101.501 85.4184 102.381 83.6823 Q103.284 81.9231 103.284 80.2333 Q103.284 77.4786 101.339 75.7425 Q99.4178 74.0064 96.316 74.0064 Q94.1169 74.0064 91.6632 74.7703 Q89.2327 75.5342 86.4549 77.0851 L86.4549 72.3629 Q89.279 71.2287 91.7326 70.65 Q94.1863 70.0713 96.2234 70.0713 Q101.594 70.0713 104.788 72.7565 Q107.983 75.4416 107.983 79.9323 Q107.983 82.062 107.172 83.9832 Q106.385 85.8814 104.279 88.474 Q103.7 89.1453 100.598 92.3628 Q97.4965 95.5573 91.8484 101.321 Z" fill="#000000" fill-rule="evenodd" fill-opacity="1" /><polyline clip-path="url(#clip722)" style="stroke:#009af9; stroke-width:4; stroke-opacity:1; fill:none" points="
  206.675,766.846 208.759,734.867 210.842,702.959 212.926,671.192 215.009,639.638 217.093,608.367 219.176,577.447 221.26,546.948 223.344,516.937 225.427,487.481 
  227.511,458.646 229.594,430.494 231.678,403.089 233.761,376.492 235.845,350.762 237.929,325.955 240.012,302.128 242.096,279.332 244.179,257.618 246.263,237.035 
  248.346,217.629 250.43,199.442 252.514,182.514 254.597,166.884 256.681,152.586 258.764,139.652 260.848,128.111 262.931,117.987 265.015,109.304 267.099,102.081 
  269.182,96.3343 271.266,92.076 273.349,89.3159 275.433,88.06 277.516,88.3113 279.6,90.069 281.684,93.3294 283.767,98.0851 285.851,104.326 287.934,112.037 
  290.018,121.203 292.101,131.801 294.185,143.81 296.269,157.202 298.352,171.948 300.436,188.014 302.519,205.366 304.603,223.964 306.686,243.768 308.77,264.733 
  310.854,286.813 312.937,309.958 315.021,334.118 317.104,359.239 319.188,385.265 321.272,412.138 323.355,439.798 325.439,468.185 327.522,497.234 329.606,526.883 
  331.689,557.064 333.773,587.711 335.857,618.755 337.94,650.129 340.024,681.761 342.107,713.582 344.191,745.522 346.274,777.509 348.358,809.473 350.442,841.341 
  352.525,873.045 354.609,904.512 356.692,935.674 358.776,966.461 360.859,996.805 362.943,1026.64 365.027,1055.89 367.11,1084.51 369.194,1112.42 371.277,1139.56 
  373.361,1165.88 375.444,1191.3 377.528,1215.79 379.612,1239.28 381.695,1261.72 383.779,1283.06 385.862,1303.26 387.946,1322.26 390.029,1340.03 392.113,1356.53 
  394.197,1371.72 396.28,1385.57 398.364,1398.04 400.447,1409.11 402.531,1418.76 404.614,1426.96 406.698,1433.69 408.782,1438.94 410.865,1442.7 412.949,1444.96 
  415.032,1445.72 417.116,1444.96 419.199,1442.7 421.283,1438.94 423.367,1433.69 425.45,1426.96 427.534,1418.76 429.617,1409.11 431.701,1398.04 433.784,1385.57 
  435.868,1371.72 437.952,1356.53 440.035,1340.03 442.119,1322.26 444.202,1303.26 446.286,1283.06 448.37,1261.72 450.453,1239.28 452.537,1215.79 454.62,1191.3 
  456.704,1165.88 458.787,1139.56 460.871,1112.42 462.955,1084.51 465.038,1055.89 467.122,1026.64 469.205,996.805 471.289,966.461 473.372,935.674 475.456,904.512 
  477.54,873.045 479.623,841.341 481.707,809.473 483.79,777.509 485.874,745.522 487.957,713.582 490.041,681.761 492.125,650.129 494.208,618.755 496.292,587.711 
  498.375,557.064 500.459,526.883 502.542,497.234 504.626,468.185 506.71,439.798 508.793,412.138 510.877,385.265 512.96,359.239 515.044,334.118 517.127,309.958 
  519.211,286.813 521.295,264.733 523.378,243.768 525.462,223.964 527.545,205.366 529.629,188.014 531.712,171.948 533.796,157.202 535.88,143.81 537.963,131.801 
  540.047,121.203 542.13,112.037 544.214,104.326 546.297,98.0851 548.381,93.3294 550.465,90.069 552.548,88.3113 554.632,88.06 556.715,89.3159 558.799,92.076 
  560.882,96.3343 562.966,102.081 565.05,109.304 567.133,117.987 569.217,128.111 571.3,139.652 573.384,152.586 575.468,166.884 577.551,182.514 579.635,199.442 
  581.718,217.629 583.802,237.035 585.885,257.618 587.969,279.332 590.053,302.128 592.136,325.955 594.22,350.762 596.303,376.492 598.387,403.089 600.47,430.494 
  602.554,458.646 604.638,487.481 606.721,516.937 608.805,546.948 610.888,577.447 612.972,608.367 615.055,639.638 617.139,671.192 619.223,702.959 621.306,734.867 
  623.39,766.846 625.473,798.825 627.557,830.733 629.64,862.5 631.724,894.053 633.808,925.325 635.891,956.245 637.975,986.744 640.058,1016.75 642.142,1046.21 
  644.225,1075.05 646.309,1103.2 648.393,1130.6 650.476,1157.2 652.56,1182.93 654.643,1207.74 656.727,1231.56 658.81,1254.36 660.894,1276.07 662.978,1296.66 
  665.061,1316.06 667.145,1334.25 669.228,1351.18 671.312,1366.81 673.395,1381.11 675.479,1394.04 677.563,1405.58 679.646,1415.7 681.73,1424.39 683.813,1431.61 
  685.897,1437.36 687.98,1441.62 690.064,1444.38 692.148,1445.63 694.231,1445.38 696.315,1443.62 698.398,1440.36 700.482,1435.61 702.566,1429.37 704.649,1421.65 
  706.733,1412.49 708.816,1401.89 710.9,1389.88 712.983,1376.49 715.067,1361.74 717.151,1345.68 719.234,1328.33 721.318,1309.73 723.401,1289.92 725.485,1268.96 
  727.568,1246.88 729.652,1223.73 731.736,1199.57 733.819,1174.45 735.903,1148.43 737.986,1121.55 740.07,1093.89 742.153,1065.51 744.237,1036.46 746.321,1006.81 
  748.404,976.628 750.488,945.981 752.571,914.937 754.655,883.563 756.738,851.931 758.822,820.109 760.906,788.17 762.989,756.183 765.073,724.219 767.156,692.351 
  769.24,660.647 771.323,629.18 773.407,598.018 775.491,567.231 777.574,536.887 779.658,507.054 781.741,477.797 783.825,449.183 785.908,421.273 787.992,394.131 
  790.076,367.816 792.159,342.388 794.243,317.901 796.326,294.412 798.41,271.971 800.493,250.629 802.577,230.434 804.661,211.429 806.744,193.657 808.828,177.158 
  810.911,161.969 812.995,148.122 815.078,135.649 817.162,124.577 819.246,114.932 821.329,106.734 823.413,100.001 825.496,94.7489 827.58,90.9891 829.664,88.7299 
  831.747,87.9763 833.831,88.7299 835.914,90.9891 837.998,94.7489 840.081,100.001 842.165,106.734 844.249,114.932 846.332,124.577 848.416,135.649 850.499,148.122 
  852.583,161.969 854.666,177.158 856.75,193.657 858.834,211.429 860.917,230.434 863.001,250.629 865.084,271.971 867.168,294.412 869.251,317.901 871.335,342.388 
  873.419,367.816 875.502,394.131 877.586,421.273 879.669,449.183 881.753,477.797 883.836,507.054 885.92,536.887 888.004,567.231 890.087,598.018 892.171,629.18 
  894.254,660.647 896.338,692.351 898.421,724.219 900.505,756.183 902.589,788.17 904.672,820.109 906.756,851.931 908.839,883.563 910.923,914.937 913.006,945.981 
  915.09,976.628 917.174,1006.81 919.257,1036.46 921.341,1065.51 923.424,1093.89 925.508,1121.55 927.591,1148.43 929.675,1174.45 931.759,1199.57 933.842,1223.73 
  935.926,1246.88 938.009,1268.96 940.093,1289.92 942.176,1309.73 944.26,1328.33 946.344,1345.68 948.427,1361.74 950.511,1376.49 952.594,1389.88 954.678,1401.89 
  956.762,1412.49 958.845,1421.65 960.929,1429.37 963.012,1435.61 965.096,1440.36 967.179,1443.62 969.263,1445.38 971.347,1445.63 973.43,1444.38 975.514,1441.62 
  977.597,1437.36 979.681,1431.61 981.764,1424.39 983.848,1415.7 985.932,1405.58 988.015,1394.04 990.099,1381.11 992.182,1366.81 994.266,1351.18 996.349,1334.25 
  998.433,1316.06 1000.52,1296.66 1002.6,1276.07 1004.68,1254.36 1006.77,1231.56 1008.85,1207.74 1010.93,1182.93 1013.02,1157.2 1015.1,1130.6 1017.19,1103.2 
  1019.27,1075.05 1021.35,1046.21 1023.44,1016.75 1025.52,986.744 1027.6,956.245 1029.69,925.325 1031.77,894.053 1033.85,862.5 1035.94,830.733 1038.02,798.825 
  1040.1,766.846 1042.19,734.867 1044.27,702.959 1046.36,671.192 1048.44,639.638 1050.52,608.367 1052.61,577.447 1054.69,546.948 1056.77,516.937 1058.86,487.481 
  1060.94,458.646 1063.02,430.494 1065.11,403.089 1067.19,376.492 1069.27,350.762 1071.36,325.955 1073.44,302.128 1075.53,279.332 1077.61,257.618 1079.69,237.035 
  1081.78,217.629 1083.86,199.442 1085.94,182.514 1088.03,166.884 1090.11,152.586 1092.19,139.652 1094.28,128.111 1096.36,117.987 1098.44,109.304 1100.53,102.081 
  1102.61,96.3343 1104.7,92.076 1106.78,89.3159 1108.86,88.06 1110.95,88.3113 1113.03,90.069 1115.11,93.3294 1117.2,98.0851 1119.28,104.326 1121.36,112.037 
  1123.45,121.203 1125.53,131.801 1127.61,143.81 1129.7,157.202 1131.78,171.948 1133.87,188.014 1135.95,205.366 1138.03,223.964 1140.12,243.768 1142.2,264.733 
  1144.28,286.813 1146.37,309.958 1148.45,334.118 1150.53,359.239 1152.62,385.265 1154.7,412.138 1156.78,439.798 1158.87,468.185 1160.95,497.234 1163.04,526.883 
  1165.12,557.064 1167.2,587.711 1169.29,618.755 1171.37,650.129 1173.45,681.761 1175.54,713.582 1177.62,745.522 1179.7,777.509 1181.79,809.473 1183.87,841.341 
  1185.95,873.045 1188.04,904.512 1190.12,935.674 1192.21,966.461 1194.29,996.805 1196.37,1026.64 1198.46,1055.89 1200.54,1084.51 1202.62,1112.42 1204.71,1139.56 
  1206.79,1165.88 1208.87,1191.3 1210.96,1215.79 1213.04,1239.28 1215.12,1261.72 1217.21,1283.06 1219.29,1303.26 1221.38,1322.26 1223.46,1340.03 1225.54,1356.53 
  1227.63,1371.72 1229.71,1385.57 1231.79,1398.04 1233.88,1409.11 1235.96,1418.76 1238.04,1426.96 1240.13,1433.69 1242.21,1438.94 1244.29,1442.7 1246.38,1444.96 
  1248.46,1445.72 1250.55,1444.96 1252.63,1442.7 1254.71,1438.94 1256.8,1433.69 1258.88,1426.96 1260.96,1418.76 1263.05,1409.11 1265.13,1398.04 1267.21,1385.57 
  1269.3,1371.72 1271.38,1356.53 1273.46,1340.03 1275.55,1322.26 1277.63,1303.26 1279.72,1283.06 1281.8,1261.72 1283.88,1239.28 1285.97,1215.79 1288.05,1191.3 
  1290.13,1165.88 1292.22,1139.56 1294.3,1112.42 1296.38,1084.51 1298.47,1055.89 1300.55,1026.64 1302.63,996.805 1304.72,966.461 1306.8,935.674 1308.89,904.512 
  1310.97,873.045 1313.05,841.341 1315.14,809.473 1317.22,777.509 1319.3,745.522 1321.39,713.582 1323.47,681.761 1325.55,650.129 1327.64,618.755 1329.72,587.711 
  1331.8,557.064 1333.89,526.883 1335.97,497.234 1338.06,468.185 1340.14,439.798 1342.22,412.138 1344.31,385.265 1346.39,359.239 1348.47,334.118 1350.56,309.958 
  1352.64,286.813 1354.72,264.733 1356.81,243.768 1358.89,223.964 1360.97,205.366 1363.06,188.014 1365.14,171.948 1367.23,157.202 1369.31,143.81 1371.39,131.801 
  1373.48,121.203 1375.56,112.037 1377.64,104.326 1379.73,98.0851 1381.81,93.3294 1383.89,90.069 1385.98,88.3113 1388.06,88.06 1390.14,89.3159 1392.23,92.076 
  1394.31,96.3343 1396.4,102.081 1398.48,109.304 1400.56,117.987 1402.65,128.111 1404.73,139.652 1406.81,152.586 1408.9,166.884 1410.98,182.514 1413.06,199.442 
  1415.15,217.629 1417.23,237.035 1419.31,257.618 1421.4,279.332 1423.48,302.128 1425.57,325.955 1427.65,350.762 1429.73,376.492 1431.82,403.089 1433.9,430.494 
  1435.98,458.646 1438.07,487.481 1440.15,516.937 1442.23,546.948 1444.32,577.447 1446.4,608.367 1448.48,639.638 1450.57,671.192 1452.65,702.959 1454.74,734.867 
  1456.82,766.846 1458.9,798.825 1460.99,830.733 1463.07,862.5 1465.15,894.053 1467.24,925.325 1469.32,956.245 1471.4,986.744 1473.49,1016.75 1475.57,1046.21 
  1477.65,1075.05 1479.74,1103.2 1481.82,1130.6 1483.91,1157.2 1485.99,1182.93 1488.07,1207.74 1490.16,1231.56 1492.24,1254.36 1494.32,1276.07 1496.41,1296.66 
  1498.49,1316.06 1500.57,1334.25 1502.66,1351.18 1504.74,1366.81 1506.82,1381.11 1508.91,1394.04 1510.99,1405.58 1513.08,1415.7 1515.16,1424.39 1517.24,1431.61 
  1519.33,1437.36 1521.41,1441.62 1523.49,1444.38 1525.58,1445.63 1527.66,1445.38 1529.74,1443.62 1531.83,1440.36 1533.91,1435.61 1536,1429.37 1538.08,1421.65 
  1540.16,1412.49 1542.25,1401.89 1544.33,1389.88 1546.41,1376.49 1548.5,1361.74 1550.58,1345.68 1552.66,1328.33 1554.75,1309.73 1556.83,1289.92 1558.91,1268.96 
  1561,1246.88 1563.08,1223.73 1565.17,1199.57 1567.25,1174.45 1569.33,1148.43 1571.42,1121.55 1573.5,1093.89 1575.58,1065.51 1577.67,1036.46 1579.75,1006.81 
  1581.83,976.628 1583.92,945.981 1586,914.937 1588.08,883.563 1590.17,851.931 1592.25,820.109 1594.34,788.17 1596.42,756.183 1598.5,724.219 1600.59,692.351 
  1602.67,660.647 1604.75,629.18 1606.84,598.018 1608.92,567.231 1611,536.887 1613.09,507.054 1615.17,477.797 1617.25,449.183 1619.34,421.273 1621.42,394.131 
  1623.51,367.816 1625.59,342.388 1627.67,317.901 1629.76,294.412 1631.84,271.971 1633.92,250.629 1636.01,230.434 1638.09,211.429 1640.17,193.657 1642.26,177.158 
  1644.34,161.969 1646.42,148.122 1648.51,135.649 1650.59,124.577 1652.68,114.932 1654.76,106.734 1656.84,100.001 1658.93,94.7489 1661.01,90.9891 1663.09,88.7299 
  1665.18,87.9763 1667.26,88.7299 1669.34,90.9891 1671.43,94.7489 1673.51,100.001 1675.59,106.734 1677.68,114.932 1679.76,124.577 1681.85,135.649 1683.93,148.122 
  1686.01,161.969 1688.1,177.158 1690.18,193.657 1692.26,211.429 1694.35,230.434 1696.43,250.629 1698.51,271.971 1700.6,294.412 1702.68,317.901 1704.76,342.388 
  1706.85,367.816 1708.93,394.131 1711.02,421.273 1713.1,449.183 1715.18,477.797 1717.27,507.054 1719.35,536.887 1721.43,567.231 1723.52,598.018 1725.6,629.18 
  1727.68,660.647 1729.77,692.351 1731.85,724.219 1733.93,756.183 1736.02,788.17 1738.1,820.109 1740.19,851.931 1742.27,883.563 1744.35,914.937 1746.44,945.981 
  1748.52,976.628 1750.6,1006.81 1752.69,1036.46 1754.77,1065.51 1756.85,1093.89 1758.94,1121.55 1761.02,1148.43 1763.1,1174.45 1765.19,1199.57 1767.27,1223.73 
  1769.36,1246.88 1771.44,1268.96 1773.52,1289.92 1775.61,1309.73 1777.69,1328.33 1779.77,1345.68 1781.86,1361.74 1783.94,1376.49 1786.02,1389.88 1788.11,1401.89 
  1790.19,1412.49 1792.27,1421.65 1794.36,1429.37 1796.44,1435.61 1798.53,1440.36 1800.61,1443.62 1802.69,1445.38 1804.78,1445.63 1806.86,1444.38 1808.94,1441.62 
  1811.03,1437.36 1813.11,1431.61 1815.19,1424.39 1817.28,1415.7 1819.36,1405.58 1821.44,1394.04 1823.53,1381.11 1825.61,1366.81 1827.7,1351.18 1829.78,1334.25 
  1831.86,1316.06 1833.95,1296.66 1836.03,1276.07 1838.11,1254.36 1840.2,1231.56 1842.28,1207.74 1844.36,1182.93 1846.45,1157.2 1848.53,1130.6 1850.61,1103.2 
  1852.7,1075.05 1854.78,1046.21 1856.87,1016.75 1858.95,986.744 1861.03,956.245 1863.12,925.325 1865.2,894.053 1867.28,862.5 1869.37,830.733 1871.45,798.825 
  1873.53,766.846 1875.62,734.867 1877.7,702.959 1879.78,671.192 1881.87,639.638 1883.95,608.367 1886.04,577.447 1888.12,546.948 1890.2,516.937 1892.29,487.481 
  1894.37,458.646 1896.45,430.494 1898.54,403.089 1900.62,376.492 1902.7,350.762 1904.79,325.955 1906.87,302.128 1908.95,279.332 1911.04,257.618 1913.12,237.035 
  1915.21,217.629 1917.29,199.442 1919.37,182.514 1921.46,166.884 1923.54,152.586 1925.62,139.652 1927.71,128.111 1929.79,117.987 1931.87,109.304 1933.96,102.081 
  1936.04,96.3343 1938.12,92.076 1940.21,89.3159 1942.29,88.06 1944.38,88.3113 1946.46,90.069 1948.54,93.3294 1950.63,98.0851 1952.71,104.326 1954.79,112.037 
  1956.88,121.203 1958.96,131.801 1961.04,143.81 1963.13,157.202 1965.21,171.948 1967.29,188.014 1969.38,205.366 1971.46,223.964 1973.55,243.768 1975.63,264.733 
  1977.71,286.813 1979.8,309.958 1981.88,334.118 1983.96,359.239 1986.05,385.265 1988.13,412.138 1990.21,439.798 1992.3,468.185 1994.38,497.234 1996.46,526.883 
  1998.55,557.064 2000.63,587.711 2002.72,618.755 2004.8,650.129 2006.88,681.761 2008.97,713.582 2011.05,745.522 2013.13,777.509 2015.22,809.473 2017.3,841.341 
  2019.38,873.045 2021.47,904.512 2023.55,935.674 2025.63,966.461 2027.72,996.805 2029.8,1026.64 2031.89,1055.89 2033.97,1084.51 2036.05,1112.42 2038.14,1139.56 
  2040.22,1165.88 2042.3,1191.3 2044.39,1215.79 2046.47,1239.28 2048.55,1261.72 2050.64,1283.06 2052.72,1303.26 2054.8,1322.26 2056.89,1340.03 2058.97,1356.53 
  2061.06,1371.72 2063.14,1385.57 2065.22,1398.04 2067.31,1409.11 2069.39,1418.76 2071.47,1426.96 2073.56,1433.69 2075.64,1438.94 2077.72,1442.7 2079.81,1444.96 
  2081.89,1445.72 2083.97,1444.96 2086.06,1442.7 2088.14,1438.94 2090.23,1433.69 2092.31,1426.96 2094.39,1418.76 2096.48,1409.11 2098.56,1398.04 2100.64,1385.57 
  2102.73,1371.72 2104.81,1356.53 2106.89,1340.03 2108.98,1322.26 2111.06,1303.26 2113.14,1283.06 2115.23,1261.72 2117.31,1239.28 2119.4,1215.79 2121.48,1191.3 
  2123.56,1165.88 2125.65,1139.56 2127.73,1112.42 2129.81,1084.51 2131.9,1055.89 2133.98,1026.64 2136.06,996.805 2138.15,966.461 2140.23,935.674 2142.31,904.512 
  2144.4,873.045 2146.48,841.341 2148.57,809.473 2150.65,777.509 2152.73,745.522 2154.82,713.582 2156.9,681.761 2158.98,650.129 2161.07,618.755 2163.15,587.711 
  2165.23,557.064 2167.32,526.883 2169.4,497.234 2171.48,468.185 2173.57,439.798 2175.65,412.138 2177.74,385.265 2179.82,359.239 2181.9,334.118 2183.99,309.958 
  2186.07,286.813 2188.15,264.733 2190.24,243.768 2192.32,223.964 2194.4,205.366 2196.49,188.014 2198.57,171.948 2200.66,157.202 2202.74,143.81 2204.82,131.801 
  2206.91,121.203 2208.99,112.037 2211.07,104.326 2213.16,98.0851 2215.24,93.3294 2217.32,90.069 2219.41,88.3113 2221.49,88.06 2223.57,89.3159 2225.66,92.076 
  2227.74,96.3343 2229.83,102.081 2231.91,109.304 2233.99,117.987 2236.08,128.111 2238.16,139.652 2240.24,152.586 2242.33,166.884 2244.41,182.514 2246.49,199.442 
  2248.58,217.629 2250.66,237.035 2252.74,257.618 2254.83,279.332 2256.91,302.128 2259,325.955 2261.08,350.762 2263.16,376.492 2265.25,403.089 2267.33,430.494 
  2269.41,458.646 2271.5,487.481 2273.58,516.937 2275.66,546.948 2277.75,577.447 2279.83,608.367 2281.91,639.638 2284,671.192 2286.08,702.959 2288.17,734.867 
  2290.25,766.846 
  "/>
<polyline clip-path="url(#clip722)" style="stroke:#e26f46; stroke-width:4; stroke-opacity:1; fill:none" points="
  206.675,88.2238 208.759,89.5338 210.842,92.1511 212.926,96.0707 215.009,101.285 217.093,107.784 219.176,115.556 221.26,124.584 223.344,134.852 225.427,146.34 
  227.511,159.026 229.594,172.885 231.678,187.891 233.761,204.014 235.845,221.224 237.929,239.487 240.012,258.767 242.096,279.029 244.179,300.232 246.263,322.336 
  248.346,345.298 250.43,369.073 252.514,393.616 254.597,418.88 256.681,444.815 258.764,471.372 260.848,498.5 262.931,526.145 265.015,554.255 267.099,582.775 
  269.182,611.651 271.266,640.826 273.349,670.245 275.433,699.85 277.516,729.584 279.6,759.39 281.684,789.21 283.767,818.988 285.851,848.665 287.934,878.183 
  290.018,907.487 292.101,936.52 294.185,965.225 296.269,993.547 298.352,1021.43 300.436,1048.82 302.519,1075.67 304.603,1101.93 306.686,1127.53 308.77,1152.44 
  310.854,1176.61 312.937,1199.98 315.021,1222.52 317.104,1244.18 319.188,1264.91 321.272,1284.69 323.355,1303.47 325.439,1321.21 327.522,1337.88 329.606,1353.45 
  331.689,1367.88 333.773,1381.16 335.857,1393.25 337.94,1404.13 340.024,1413.78 342.107,1422.18 344.191,1429.32 346.274,1435.18 348.358,1439.74 350.442,1443.01 
  352.525,1444.98 354.609,1445.63 356.692,1444.98 358.776,1443.01 360.859,1439.74 362.943,1435.18 365.027,1429.32 367.11,1422.18 369.194,1413.78 371.277,1404.13 
  373.361,1393.25 375.444,1381.16 377.528,1367.88 379.612,1353.45 381.695,1337.88 383.779,1321.21 385.862,1303.47 387.946,1284.69 390.029,1264.91 392.113,1244.18 
  394.197,1222.52 396.28,1199.98 398.364,1176.61 400.447,1152.44 402.531,1127.53 404.614,1101.93 406.698,1075.67 408.782,1048.82 410.865,1021.43 412.949,993.547 
  415.032,965.225 417.116,936.52 419.199,907.487 421.283,878.183 423.367,848.665 425.45,818.988 427.534,789.21 429.617,759.39 431.701,729.584 433.784,699.85 
  435.868,670.245 437.952,640.826 440.035,611.651 442.119,582.775 444.202,554.255 446.286,526.145 448.37,498.5 450.453,471.372 452.537,444.815 454.62,418.88 
  456.704,393.616 458.787,369.073 460.871,345.298 462.955,322.336 465.038,300.232 467.122,279.029 469.205,258.767 471.289,239.487 473.372,221.224 475.456,204.014 
  477.54,187.891 479.623,172.885 481.707,159.026 483.79,146.34 485.874,134.852 487.957,124.584 490.041,115.556 492.125,107.784 494.208,101.285 496.292,96.0707 
  498.375,92.1511 500.459,89.5338 502.542,88.2238 504.626,88.2238 506.71,89.5338 508.793,92.1511 510.877,96.0707 512.96,101.285 515.044,107.784 517.127,115.556 
  519.211,124.584 521.295,134.852 523.378,146.34 525.462,159.026 527.545,172.885 529.629,187.891 531.712,204.014 533.796,221.224 535.88,239.487 537.963,258.767 
  540.047,279.029 542.13,300.232 544.214,322.336 546.297,345.298 548.381,369.073 550.465,393.616 552.548,418.88 554.632,444.815 556.715,471.372 558.799,498.5 
  560.882,526.145 562.966,554.255 565.05,582.775 567.133,611.651 569.217,640.826 571.3,670.245 573.384,699.85 575.468,729.584 577.551,759.39 579.635,789.21 
  581.718,818.988 583.802,848.665 585.885,878.183 587.969,907.487 590.053,936.52 592.136,965.225 594.22,993.547 596.303,1021.43 598.387,1048.82 600.47,1075.67 
  602.554,1101.93 604.638,1127.53 606.721,1152.44 608.805,1176.61 610.888,1199.98 612.972,1222.52 615.055,1244.18 617.139,1264.91 619.223,1284.69 621.306,1303.47 
  623.39,1321.21 625.473,1337.88 627.557,1353.45 629.64,1367.88 631.724,1381.16 633.808,1393.25 635.891,1404.13 637.975,1413.78 640.058,1422.18 642.142,1429.32 
  644.225,1435.18 646.309,1439.74 648.393,1443.01 650.476,1444.98 652.56,1445.63 654.643,1444.98 656.727,1443.01 658.81,1439.74 660.894,1435.18 662.978,1429.32 
  665.061,1422.18 667.145,1413.78 669.228,1404.13 671.312,1393.25 673.395,1381.16 675.479,1367.88 677.563,1353.45 679.646,1337.88 681.73,1321.21 683.813,1303.47 
  685.897,1284.69 687.98,1264.91 690.064,1244.18 692.148,1222.52 694.231,1199.98 696.315,1176.61 698.398,1152.44 700.482,1127.53 702.566,1101.93 704.649,1075.67 
  706.733,1048.82 708.816,1021.43 710.9,993.547 712.983,965.225 715.067,936.52 717.151,907.487 719.234,878.183 721.318,848.665 723.401,818.988 725.485,789.21 
  727.568,759.39 729.652,729.584 731.736,699.85 733.819,670.245 735.903,640.826 737.986,611.651 740.07,582.775 742.153,554.255 744.237,526.145 746.321,498.5 
  748.404,471.372 750.488,444.815 752.571,418.88 754.655,393.616 756.738,369.073 758.822,345.298 760.906,322.336 762.989,300.232 765.073,279.029 767.156,258.767 
  769.24,239.487 771.323,221.224 773.407,204.014 775.491,187.891 777.574,172.885 779.658,159.026 781.741,146.34 783.825,134.852 785.908,124.584 787.992,115.556 
  790.076,107.784 792.159,101.285 794.243,96.0707 796.326,92.1511 798.41,89.5338 800.493,88.2238 802.577,88.2238 804.661,89.5338 806.744,92.1511 808.828,96.0707 
  810.911,101.285 812.995,107.784 815.078,115.556 817.162,124.584 819.246,134.852 821.329,146.34 823.413,159.026 825.496,172.885 827.58,187.891 829.664,204.014 
  831.747,221.224 833.831,239.487 835.914,258.767 837.998,279.029 840.081,300.232 842.165,322.336 844.249,345.298 846.332,369.073 848.416,393.616 850.499,418.88 
  852.583,444.815 854.666,471.372 856.75,498.5 858.834,526.145 860.917,554.255 863.001,582.775 865.084,611.651 867.168,640.826 869.251,670.245 871.335,699.85 
  873.419,729.584 875.502,759.39 877.586,789.21 879.669,818.988 881.753,848.665 883.836,878.183 885.92,907.487 888.004,936.52 890.087,965.225 892.171,993.547 
  894.254,1021.43 896.338,1048.82 898.421,1075.67 900.505,1101.93 902.589,1127.53 904.672,1152.44 906.756,1176.61 908.839,1199.98 910.923,1222.52 913.006,1244.18 
  915.09,1264.91 917.174,1284.69 919.257,1303.47 921.341,1321.21 923.424,1337.88 925.508,1353.45 927.591,1367.88 929.675,1381.16 931.759,1393.25 933.842,1404.13 
  935.926,1413.78 938.009,1422.18 940.093,1429.32 942.176,1435.18 944.26,1439.74 946.344,1443.01 948.427,1444.98 950.511,1445.63 952.594,1444.98 954.678,1443.01 
  956.762,1439.74 958.845,1435.18 960.929,1429.32 963.012,1422.18 965.096,1413.78 967.179,1404.13 969.263,1393.25 971.347,1381.16 973.43,1367.88 975.514,1353.45 
  977.597,1337.88 979.681,1321.21 981.764,1303.47 983.848,1284.69 985.932,1264.91 988.015,1244.18 990.099,1222.52 992.182,1199.98 994.266,1176.61 996.349,1152.44 
  998.433,1127.53 1000.52,1101.93 1002.6,1075.67 1004.68,1048.82 1006.77,1021.43 1008.85,993.547 1010.93,965.225 1013.02,936.52 1015.1,907.487 1017.19,878.183 
  1019.27,848.665 1021.35,818.988 1023.44,789.21 1025.52,759.39 1027.6,729.584 1029.69,699.85 1031.77,670.245 1033.85,640.826 1035.94,611.651 1038.02,582.775 
  1040.1,554.255 1042.19,526.145 1044.27,498.5 1046.36,471.372 1048.44,444.815 1050.52,418.88 1052.61,393.616 1054.69,369.073 1056.77,345.298 1058.86,322.336 
  1060.94,300.232 1063.02,279.029 1065.11,258.767 1067.19,239.487 1069.27,221.224 1071.36,204.014 1073.44,187.891 1075.53,172.885 1077.61,159.026 1079.69,146.34 
  1081.78,134.852 1083.86,124.584 1085.94,115.556 1088.03,107.784 1090.11,101.285 1092.19,96.0707 1094.28,92.1511 1096.36,89.5338 1098.44,88.2238 1100.53,88.2238 
  1102.61,89.5338 1104.7,92.1511 1106.78,96.0707 1108.86,101.285 1110.95,107.784 1113.03,115.556 1115.11,124.584 1117.2,134.852 1119.28,146.34 1121.36,159.026 
  1123.45,172.885 1125.53,187.891 1127.61,204.014 1129.7,221.224 1131.78,239.487 1133.87,258.767 1135.95,279.029 1138.03,300.232 1140.12,322.336 1142.2,345.298 
  1144.28,369.073 1146.37,393.616 1148.45,418.88 1150.53,444.815 1152.62,471.372 1154.7,498.5 1156.78,526.145 1158.87,554.255 1160.95,582.775 1163.04,611.651 
  1165.12,640.826 1167.2,670.245 1169.29,699.85 1171.37,729.584 1173.45,759.39 1175.54,789.21 1177.62,818.988 1179.7,848.665 1181.79,878.183 1183.87,907.487 
  1185.95,936.52 1188.04,965.225 1190.12,993.547 1192.21,1021.43 1194.29,1048.82 1196.37,1075.67 1198.46,1101.93 1200.54,1127.53 1202.62,1152.44 1204.71,1176.61 
  1206.79,1199.98 1208.87,1222.52 1210.96,1244.18 1213.04,1264.91 1215.12,1284.69 1217.21,1303.47 1219.29,1321.21 1221.38,1337.88 1223.46,1353.45 1225.54,1367.88 
  1227.63,1381.16 1229.71,1393.25 1231.79,1404.13 1233.88,1413.78 1235.96,1422.18 1238.04,1429.32 1240.13,1435.18 1242.21,1439.74 1244.29,1443.01 1246.38,1444.98 
  1248.46,1445.63 1250.55,1444.98 1252.63,1443.01 1254.71,1439.74 1256.8,1435.18 1258.88,1429.32 1260.96,1422.18 1263.05,1413.78 1265.13,1404.13 1267.21,1393.25 
  1269.3,1381.16 1271.38,1367.88 1273.46,1353.45 1275.55,1337.88 1277.63,1321.21 1279.72,1303.47 1281.8,1284.69 1283.88,1264.91 1285.97,1244.18 1288.05,1222.52 
  1290.13,1199.98 1292.22,1176.61 1294.3,1152.44 1296.38,1127.53 1298.47,1101.93 1300.55,1075.67 1302.63,1048.82 1304.72,1021.43 1306.8,993.547 1308.89,965.225 
  1310.97,936.52 1313.05,907.487 1315.14,878.183 1317.22,848.665 1319.3,818.988 1321.39,789.21 1323.47,759.39 1325.55,729.584 1327.64,699.85 1329.72,670.245 
  1331.8,640.826 1333.89,611.651 1335.97,582.775 1338.06,554.255 1340.14,526.145 1342.22,498.5 1344.31,471.372 1346.39,444.815 1348.47,418.88 1350.56,393.616 
  1352.64,369.073 1354.72,345.298 1356.81,322.336 1358.89,300.232 1360.97,279.029 1363.06,258.767 1365.14,239.487 1367.23,221.224 1369.31,204.014 1371.39,187.891 
  1373.48,172.885 1375.56,159.026 1377.64,146.34 1379.73,134.852 1381.81,124.584 1383.89,115.556 1385.98,107.784 1388.06,101.285 1390.14,96.0707 1392.23,92.1511 
  1394.31,89.5338 1396.4,88.2238 1398.48,88.2238 1400.56,89.5338 1402.65,92.1511 1404.73,96.0707 1406.81,101.285 1408.9,107.784 1410.98,115.556 1413.06,124.584 
  1415.15,134.852 1417.23,146.34 1419.31,159.026 1421.4,172.885 1423.48,187.891 1425.57,204.014 1427.65,221.224 1429.73,239.487 1431.82,258.767 1433.9,279.029 
  1435.98,300.232 1438.07,322.336 1440.15,345.298 1442.23,369.073 1444.32,393.616 1446.4,418.88 1448.48,444.815 1450.57,471.372 1452.65,498.5 1454.74,526.145 
  1456.82,554.255 1458.9,582.775 1460.99,611.651 1463.07,640.826 1465.15,670.245 1467.24,699.85 1469.32,729.584 1471.4,759.39 1473.49,789.21 1475.57,818.988 
  1477.65,848.665 1479.74,878.183 1481.82,907.487 1483.91,936.52 1485.99,965.225 1488.07,993.547 1490.16,1021.43 1492.24,1048.82 1494.32,1075.67 1496.41,1101.93 
  1498.49,1127.53 1500.57,1152.44 1502.66,1176.61 1504.74,1199.98 1506.82,1222.52 1508.91,1244.18 1510.99,1264.91 1513.08,1284.69 1515.16,1303.47 1517.24,1321.21 
  1519.33,1337.88 1521.41,1353.45 1523.49,1367.88 1525.58,1381.16 1527.66,1393.25 1529.74,1404.13 1531.83,1413.78 1533.91,1422.18 1536,1429.32 1538.08,1435.18 
  1540.16,1439.74 1542.25,1443.01 1544.33,1444.98 1546.41,1445.63 1548.5,1444.98 1550.58,1443.01 1552.66,1439.74 1554.75,1435.18 1556.83,1429.32 1558.91,1422.18 
  1561,1413.78 1563.08,1404.13 1565.17,1393.25 1567.25,1381.16 1569.33,1367.88 1571.42,1353.45 1573.5,1337.88 1575.58,1321.21 1577.67,1303.47 1579.75,1284.69 
  1581.83,1264.91 1583.92,1244.18 1586,1222.52 1588.08,1199.98 1590.17,1176.61 1592.25,1152.44 1594.34,1127.53 1596.42,1101.93 1598.5,1075.67 1600.59,1048.82 
  1602.67,1021.43 1604.75,993.547 1606.84,965.225 1608.92,936.52 1611,907.487 1613.09,878.183 1615.17,848.665 1617.25,818.988 1619.34,789.21 1621.42,759.39 
  1623.51,729.584 1625.59,699.85 1627.67,670.245 1629.76,640.826 1631.84,611.651 1633.92,582.775 1636.01,554.255 1638.09,526.145 1640.17,498.5 1642.26,471.372 
  1644.34,444.815 1646.42,418.88 1648.51,393.616 1650.59,369.073 1652.68,345.298 1654.76,322.336 1656.84,300.232 1658.93,279.029 1661.01,258.767 1663.09,239.487 
  1665.18,221.224 1667.26,204.014 1669.34,187.891 1671.43,172.885 1673.51,159.026 1675.59,146.34 1677.68,134.852 1679.76,124.584 1681.85,115.556 1683.93,107.784 
  1686.01,101.285 1688.1,96.0707 1690.18,92.1511 1692.26,89.5338 1694.35,88.2238 1696.43,88.2238 1698.51,89.5338 1700.6,92.1511 1702.68,96.0707 1704.76,101.285 
  1706.85,107.784 1708.93,115.556 1711.02,124.584 1713.1,134.852 1715.18,146.34 1717.27,159.026 1719.35,172.885 1721.43,187.891 1723.52,204.014 1725.6,221.224 
  1727.68,239.487 1729.77,258.767 1731.85,279.029 1733.93,300.232 1736.02,322.336 1738.1,345.298 1740.19,369.073 1742.27,393.616 1744.35,418.88 1746.44,444.815 
  1748.52,471.372 1750.6,498.5 1752.69,526.145 1754.77,554.255 1756.85,582.775 1758.94,611.651 1761.02,640.826 1763.1,670.245 1765.19,699.85 1767.27,729.584 
  1769.36,759.39 1771.44,789.21 1773.52,818.988 1775.61,848.665 1777.69,878.183 1779.77,907.487 1781.86,936.52 1783.94,965.225 1786.02,993.547 1788.11,1021.43 
  1790.19,1048.82 1792.27,1075.67 1794.36,1101.93 1796.44,1127.53 1798.53,1152.44 1800.61,1176.61 1802.69,1199.98 1804.78,1222.52 1806.86,1244.18 1808.94,1264.91 
  1811.03,1284.69 1813.11,1303.47 1815.19,1321.21 1817.28,1337.88 1819.36,1353.45 1821.44,1367.88 1823.53,1381.16 1825.61,1393.25 1827.7,1404.13 1829.78,1413.78 
  1831.86,1422.18 1833.95,1429.32 1836.03,1435.18 1838.11,1439.74 1840.2,1443.01 1842.28,1444.98 1844.36,1445.63 1846.45,1444.98 1848.53,1443.01 1850.61,1439.74 
  1852.7,1435.18 1854.78,1429.32 1856.87,1422.18 1858.95,1413.78 1861.03,1404.13 1863.12,1393.25 1865.2,1381.16 1867.28,1367.88 1869.37,1353.45 1871.45,1337.88 
  1873.53,1321.21 1875.62,1303.47 1877.7,1284.69 1879.78,1264.91 1881.87,1244.18 1883.95,1222.52 1886.04,1199.98 1888.12,1176.61 1890.2,1152.44 1892.29,1127.53 
  1894.37,1101.93 1896.45,1075.67 1898.54,1048.82 1900.62,1021.43 1902.7,993.547 1904.79,965.225 1906.87,936.52 1908.95,907.487 1911.04,878.183 1913.12,848.665 
  1915.21,818.988 1917.29,789.21 1919.37,759.39 1921.46,729.584 1923.54,699.85 1925.62,670.245 1927.71,640.826 1929.79,611.651 1931.87,582.775 1933.96,554.255 
  1936.04,526.145 1938.12,498.5 1940.21,471.372 1942.29,444.815 1944.38,418.88 1946.46,393.616 1948.54,369.073 1950.63,345.298 1952.71,322.336 1954.79,300.232 
  1956.88,279.029 1958.96,258.767 1961.04,239.487 1963.13,221.224 1965.21,204.014 1967.29,187.891 1969.38,172.885 1971.46,159.026 1973.55,146.34 1975.63,134.852 
  1977.71,124.584 1979.8,115.556 1981.88,107.784 1983.96,101.285 1986.05,96.0707 1988.13,92.1511 1990.21,89.5338 1992.3,88.2238 1994.38,88.2238 1996.46,89.5338 
  1998.55,92.1511 2000.63,96.0707 2002.72,101.285 2004.8,107.784 2006.88,115.556 2008.97,124.584 2011.05,134.852 2013.13,146.34 2015.22,159.026 2017.3,172.885 
  2019.38,187.891 2021.47,204.014 2023.55,221.224 2025.63,239.487 2027.72,258.767 2029.8,279.029 2031.89,300.232 2033.97,322.336 2036.05,345.298 2038.14,369.073 
  2040.22,393.616 2042.3,418.88 2044.39,444.815 2046.47,471.372 2048.55,498.5 2050.64,526.145 2052.72,554.255 2054.8,582.775 2056.89,611.651 2058.97,640.826 
  2061.06,670.245 2063.14,699.85 2065.22,729.584 2067.31,759.39 2069.39,789.21 2071.47,818.988 2073.56,848.665 2075.64,878.183 2077.72,907.487 2079.81,936.52 
  2081.89,965.225 2083.97,993.547 2086.06,1021.43 2088.14,1048.82 2090.23,1075.67 2092.31,1101.93 2094.39,1127.53 2096.48,1152.44 2098.56,1176.61 2100.64,1199.98 
  2102.73,1222.52 2104.81,1244.18 2106.89,1264.91 2108.98,1284.69 2111.06,1303.47 2113.14,1321.21 2115.23,1337.88 2117.31,1353.45 2119.4,1367.88 2121.48,1381.16 
  2123.56,1393.25 2125.65,1404.13 2127.73,1413.78 2129.81,1422.18 2131.9,1429.32 2133.98,1435.18 2136.06,1439.74 2138.15,1443.01 2140.23,1444.98 2142.31,1445.63 
  2144.4,1444.98 2146.48,1443.01 2148.57,1439.74 2150.65,1435.18 2152.73,1429.32 2154.82,1422.18 2156.9,1413.78 2158.98,1404.13 2161.07,1393.25 2163.15,1381.16 
  2165.23,1367.88 2167.32,1353.45 2169.4,1337.88 2171.48,1321.21 2173.57,1303.47 2175.65,1284.69 2177.74,1264.91 2179.82,1244.18 2181.9,1222.52 2183.99,1199.98 
  2186.07,1176.61 2188.15,1152.44 2190.24,1127.53 2192.32,1101.93 2194.4,1075.67 2196.49,1048.82 2198.57,1021.43 2200.66,993.547 2202.74,965.225 2204.82,936.52 
  2206.91,907.487 2208.99,878.183 2211.07,848.665 2213.16,818.988 2215.24,789.21 2217.32,759.39 2219.41,729.584 2221.49,699.85 2223.57,670.245 2225.66,640.826 
  2227.74,611.651 2229.83,582.775 2231.91,554.255 2233.99,526.145 2236.08,498.5 2238.16,471.372 2240.24,444.815 2242.33,418.88 2244.41,393.616 2246.49,369.073 
  2248.58,345.298 2250.66,322.336 2252.74,300.232 2254.83,279.029 2256.91,258.767 2259,239.487 2261.08,221.224 2263.16,204.014 2265.25,187.891 2267.33,172.885 
  2269.41,159.026 2271.5,146.34 2273.58,134.852 2275.66,124.584 2277.75,115.556 2279.83,107.784 2281.91,101.285 2284,96.0707 2286.08,92.1511 2288.17,89.5338 
  2290.25,88.2238 
  "/>
<polyline clip-path="url(#clip722)" style="stroke:#3da44d; stroke-width:4; stroke-opacity:1; fill:none" points="
  206.675,766.846 208.759,734.867 210.842,702.959 212.926,671.192 215.009,639.638 217.093,608.367 219.176,577.447 221.26,546.948 223.344,516.937 225.427,487.481 
  227.511,458.646 229.594,430.494 231.678,403.089 233.761,376.492 235.845,350.762 237.929,325.955 240.012,302.128 242.096,279.332 244.179,257.618 246.263,237.035 
  248.346,217.629 250.43,199.442 252.514,182.514 254.597,166.884 256.681,152.586 258.764,139.652 260.848,128.111 262.931,117.987 265.015,109.304 267.099,102.081 
  269.182,96.3343 271.266,92.076 273.349,89.3159 275.433,88.06 277.516,88.3113 279.6,90.069 281.684,93.3294 283.767,98.0851 285.851,104.326 287.934,112.037 
  290.018,121.203 292.101,131.801 294.185,143.81 296.269,157.202 298.352,171.948 300.436,188.014 302.519,205.366 304.603,223.964 306.686,243.768 308.77,264.733 
  310.854,286.813 312.937,309.958 315.021,334.118 317.104,359.239 319.188,385.265 321.272,412.138 323.355,439.798 325.439,468.185 327.522,497.234 329.606,526.883 
  331.689,557.064 333.773,587.711 335.857,618.755 337.94,650.129 340.024,681.761 342.107,713.582 344.191,745.522 346.274,777.509 348.358,809.473 350.442,841.341 
  352.525,873.045 354.609,904.512 356.692,935.674 358.776,966.461 360.859,996.805 362.943,1026.64 365.027,1055.89 367.11,1084.51 369.194,1112.42 371.277,1139.56 
  373.361,1165.88 375.444,1191.3 377.528,1215.79 379.612,1239.28 381.695,1261.72 383.779,1283.06 385.862,1303.26 387.946,1322.26 390.029,1340.03 392.113,1356.53 
  394.197,1371.72 396.28,1385.57 398.364,1398.04 400.447,1409.11 402.531,1418.76 404.614,1426.96 406.698,1433.69 408.782,1438.94 410.865,1442.7 412.949,1444.96 
  415.032,1445.72 417.116,1444.96 419.199,1442.7 421.283,1438.94 423.367,1433.69 425.45,1426.96 427.534,1418.76 429.617,1409.11 431.701,1398.04 433.784,1385.57 
  435.868,1371.72 437.952,1356.53 440.035,1340.03 442.119,1322.26 444.202,1303.26 446.286,1283.06 448.37,1261.72 450.453,1239.28 452.537,1215.79 454.62,1191.3 
  456.704,1165.88 458.787,1139.56 460.871,1112.42 462.955,1084.51 465.038,1055.89 467.122,1026.64 469.205,996.805 471.289,966.461 473.372,935.674 475.456,904.512 
  477.54,873.045 479.623,841.341 481.707,809.473 483.79,777.509 485.874,745.522 487.957,713.582 490.041,681.761 492.125,650.129 494.208,618.755 496.292,587.711 
  498.375,557.064 500.459,526.883 502.542,497.234 504.626,468.185 506.71,439.798 508.793,412.138 510.877,385.265 512.96,359.239 515.044,334.118 517.127,309.958 
  519.211,286.813 521.295,264.733 523.378,243.768 525.462,223.964 527.545,205.366 529.629,188.014 531.712,171.948 533.796,157.202 535.88,143.81 537.963,131.801 
  540.047,121.203 542.13,112.037 544.214,104.326 546.297,98.0851 548.381,93.3294 550.465,90.069 552.548,88.3113 554.632,88.06 556.715,89.3159 558.799,92.076 
  560.882,96.3343 562.966,102.081 565.05,109.304 567.133,117.987 569.217,128.111 571.3,139.652 573.384,152.586 575.468,166.884 577.551,182.514 579.635,199.442 
  581.718,217.629 583.802,237.035 585.885,257.618 587.969,279.332 590.053,302.128 592.136,325.955 594.22,350.762 596.303,376.492 598.387,403.089 600.47,430.494 
  602.554,458.646 604.638,487.481 606.721,516.937 608.805,546.948 610.888,577.447 612.972,608.367 615.055,639.638 617.139,671.192 619.223,702.959 621.306,734.867 
  623.39,766.846 625.473,798.825 627.557,830.733 629.64,862.5 631.724,894.053 633.808,925.325 635.891,956.245 637.975,986.744 640.058,1016.75 642.142,1046.21 
  644.225,1075.05 646.309,1103.2 648.393,1130.6 650.476,1157.2 652.56,1182.93 654.643,1207.74 656.727,1231.56 658.81,1254.36 660.894,1276.07 662.978,1296.66 
  665.061,1316.06 667.145,1334.25 669.228,1351.18 671.312,1366.81 673.395,1381.11 675.479,1394.04 677.563,1405.58 679.646,1415.7 681.73,1424.39 683.813,1431.61 
  685.897,1437.36 687.98,1441.62 690.064,1444.38 692.148,1445.63 694.231,1445.38 696.315,1443.62 698.398,1440.36 700.482,1435.61 702.566,1429.37 704.649,1421.65 
  706.733,1412.49 708.816,1401.89 710.9,1389.88 712.983,1376.49 715.067,1361.74 717.151,1345.68 719.234,1328.33 721.318,1309.73 723.401,1289.92 725.485,1268.96 
  727.568,1246.88 729.652,1223.73 731.736,1199.57 733.819,1174.45 735.903,1148.43 737.986,1121.55 740.07,1093.89 742.153,1065.51 744.237,1036.46 746.321,1006.81 
  748.404,976.628 750.488,945.981 752.571,914.937 754.655,883.563 756.738,851.931 758.822,820.109 760.906,788.17 762.989,756.183 765.073,724.219 767.156,692.351 
  769.24,660.647 771.323,629.18 773.407,598.018 775.491,567.231 777.574,536.887 779.658,507.054 781.741,477.797 783.825,449.183 785.908,421.273 787.992,394.131 
  790.076,367.816 792.159,342.388 794.243,317.901 796.326,294.412 798.41,271.971 800.493,250.629 802.577,230.434 804.661,211.429 806.744,193.657 808.828,177.158 
  810.911,161.969 812.995,148.122 815.078,135.649 817.162,124.577 819.246,114.932 821.329,106.734 823.413,100.001 825.496,94.7489 827.58,90.9891 829.664,88.7299 
  831.747,87.9763 833.831,88.7299 835.914,90.9891 837.998,94.7489 840.081,100.001 842.165,106.734 844.249,114.932 846.332,124.577 848.416,135.649 850.499,148.122 
  852.583,161.969 854.666,177.158 856.75,193.657 858.834,211.429 860.917,230.434 863.001,250.629 865.084,271.971 867.168,294.412 869.251,317.901 871.335,342.388 
  873.419,367.816 875.502,394.131 877.586,421.273 879.669,449.183 881.753,477.797 883.836,507.054 885.92,536.887 888.004,567.231 890.087,598.018 892.171,629.18 
  894.254,660.647 896.338,692.351 898.421,724.219 900.505,756.183 902.589,788.17 904.672,820.109 906.756,851.931 908.839,883.563 910.923,914.937 913.006,945.981 
  915.09,976.628 917.174,1006.81 919.257,1036.46 921.341,1065.51 923.424,1093.89 925.508,1121.55 927.591,1148.43 929.675,1174.45 931.759,1199.57 933.842,1223.73 
  935.926,1246.88 938.009,1268.96 940.093,1289.92 942.176,1309.73 944.26,1328.33 946.344,1345.68 948.427,1361.74 950.511,1376.49 952.594,1389.88 954.678,1401.89 
  956.762,1412.49 958.845,1421.65 960.929,1429.37 963.012,1435.61 965.096,1440.36 967.179,1443.62 969.263,1445.38 971.347,1445.63 973.43,1444.38 975.514,1441.62 
  977.597,1437.36 979.681,1431.61 981.764,1424.39 983.848,1415.7 985.932,1405.58 988.015,1394.04 990.099,1381.11 992.182,1366.81 994.266,1351.18 996.349,1334.25 
  998.433,1316.06 1000.52,1296.66 1002.6,1276.07 1004.68,1254.36 1006.77,1231.56 1008.85,1207.74 1010.93,1182.93 1013.02,1157.2 1015.1,1130.6 1017.19,1103.2 
  1019.27,1075.05 1021.35,1046.21 1023.44,1016.75 1025.52,986.744 1027.6,956.245 1029.69,925.325 1031.77,894.053 1033.85,862.5 1035.94,830.733 1038.02,798.825 
  1040.1,766.846 1042.19,734.867 1044.27,702.959 1046.36,671.192 1048.44,639.638 1050.52,608.367 1052.61,577.447 1054.69,546.948 1056.77,516.937 1058.86,487.481 
  1060.94,458.646 1063.02,430.494 1065.11,403.089 1067.19,376.492 1069.27,350.762 1071.36,325.955 1073.44,302.128 1075.53,279.332 1077.61,257.618 1079.69,237.035 
  1081.78,217.629 1083.86,199.442 1085.94,182.514 1088.03,166.884 1090.11,152.586 1092.19,139.652 1094.28,128.111 1096.36,117.987 1098.44,109.304 1100.53,102.081 
  1102.61,96.3343 1104.7,92.076 1106.78,89.3159 1108.86,88.06 1110.95,88.3113 1113.03,90.069 1115.11,93.3294 1117.2,98.0851 1119.28,104.326 1121.36,112.037 
  1123.45,121.203 1125.53,131.801 1127.61,143.81 1129.7,157.202 1131.78,171.948 1133.87,188.014 1135.95,205.366 1138.03,223.964 1140.12,243.768 1142.2,264.733 
  1144.28,286.813 1146.37,309.958 1148.45,334.118 1150.53,359.239 1152.62,385.265 1154.7,412.138 1156.78,439.798 1158.87,468.185 1160.95,497.234 1163.04,526.883 
  1165.12,557.064 1167.2,587.711 1169.29,618.755 1171.37,650.129 1173.45,681.761 1175.54,713.582 1177.62,745.522 1179.7,777.509 1181.79,809.473 1183.87,841.341 
  1185.95,873.045 1188.04,904.512 1190.12,935.674 1192.21,966.461 1194.29,996.805 1196.37,1026.64 1198.46,1055.89 1200.54,1084.51 1202.62,1112.42 1204.71,1139.56 
  1206.79,1165.88 1208.87,1191.3 1210.96,1215.79 1213.04,1239.28 1215.12,1261.72 1217.21,1283.06 1219.29,1303.26 1221.38,1322.26 1223.46,1340.03 1225.54,1356.53 
  1227.63,1371.72 1229.71,1385.57 1231.79,1398.04 1233.88,1409.11 1235.96,1418.76 1238.04,1426.96 1240.13,1433.69 1242.21,1438.94 1244.29,1442.7 1246.38,1444.96 
  1248.46,1445.72 1250.55,1444.96 1252.63,1442.7 1254.71,1438.94 1256.8,1433.69 1258.88,1426.96 1260.96,1418.76 1263.05,1409.11 1265.13,1398.04 1267.21,1385.57 
  1269.3,1371.72 1271.38,1356.53 1273.46,1340.03 1275.55,1322.26 1277.63,1303.26 1279.72,1283.06 1281.8,1261.72 1283.88,1239.28 1285.97,1215.79 1288.05,1191.3 
  1290.13,1165.88 1292.22,1139.56 1294.3,1112.42 1296.38,1084.51 1298.47,1055.89 1300.55,1026.64 1302.63,996.805 1304.72,966.461 1306.8,935.674 1308.89,904.512 
  1310.97,873.045 1313.05,841.341 1315.14,809.473 1317.22,777.509 1319.3,745.522 1321.39,713.582 1323.47,681.761 1325.55,650.129 1327.64,618.755 1329.72,587.711 
  1331.8,557.064 1333.89,526.883 1335.97,497.234 1338.06,468.185 1340.14,439.798 1342.22,412.138 1344.31,385.265 1346.39,359.239 1348.47,334.118 1350.56,309.958 
  1352.64,286.813 1354.72,264.733 1356.81,243.768 1358.89,223.964 1360.97,205.366 1363.06,188.014 1365.14,171.948 1367.23,157.202 1369.31,143.81 1371.39,131.801 
  1373.48,121.203 1375.56,112.037 1377.64,104.326 1379.73,98.0851 1381.81,93.3294 1383.89,90.069 1385.98,88.3113 1388.06,88.06 1390.14,89.3159 1392.23,92.076 
  1394.31,96.3343 1396.4,102.081 1398.48,109.304 1400.56,117.987 1402.65,128.111 1404.73,139.652 1406.81,152.586 1408.9,166.884 1410.98,182.514 1413.06,199.442 
  1415.15,217.629 1417.23,237.035 1419.31,257.618 1421.4,279.332 1423.48,302.128 1425.57,325.955 1427.65,350.762 1429.73,376.492 1431.82,403.089 1433.9,430.494 
  1435.98,458.646 1438.07,487.481 1440.15,516.937 1442.23,546.948 1444.32,577.447 1446.4,608.367 1448.48,639.638 1450.57,671.192 1452.65,702.959 1454.74,734.867 
  1456.82,766.846 1458.9,798.825 1460.99,830.733 1463.07,862.5 1465.15,894.053 1467.24,925.325 1469.32,956.245 1471.4,986.744 1473.49,1016.75 1475.57,1046.21 
  1477.65,1075.05 1479.74,1103.2 1481.82,1130.6 1483.91,1157.2 1485.99,1182.93 1488.07,1207.74 1490.16,1231.56 1492.24,1254.36 1494.32,1276.07 1496.41,1296.66 
  1498.49,1316.06 1500.57,1334.25 1502.66,1351.18 1504.74,1366.81 1506.82,1381.11 1508.91,1394.04 1510.99,1405.58 1513.08,1415.7 1515.16,1424.39 1517.24,1431.61 
  1519.33,1437.36 1521.41,1441.62 1523.49,1444.38 1525.58,1445.63 1527.66,1445.38 1529.74,1443.62 1531.83,1440.36 1533.91,1435.61 1536,1429.37 1538.08,1421.65 
  1540.16,1412.49 1542.25,1401.89 1544.33,1389.88 1546.41,1376.49 1548.5,1361.74 1550.58,1345.68 1552.66,1328.33 1554.75,1309.73 1556.83,1289.92 1558.91,1268.96 
  1561,1246.88 1563.08,1223.73 1565.17,1199.57 1567.25,1174.45 1569.33,1148.43 1571.42,1121.55 1573.5,1093.89 1575.58,1065.51 1577.67,1036.46 1579.75,1006.81 
  1581.83,976.628 1583.92,945.981 1586,914.937 1588.08,883.563 1590.17,851.931 1592.25,820.109 1594.34,788.17 1596.42,756.183 1598.5,724.219 1600.59,692.351 
  1602.67,660.647 1604.75,629.18 1606.84,598.018 1608.92,567.231 1611,536.887 1613.09,507.054 1615.17,477.797 1617.25,449.183 1619.34,421.273 1621.42,394.131 
  1623.51,367.816 1625.59,342.388 1627.67,317.901 1629.76,294.412 1631.84,271.971 1633.92,250.629 1636.01,230.434 1638.09,211.429 1640.17,193.657 1642.26,177.158 
  1644.34,161.969 1646.42,148.122 1648.51,135.649 1650.59,124.577 1652.68,114.932 1654.76,106.734 1656.84,100.001 1658.93,94.7489 1661.01,90.9891 1663.09,88.7299 
  1665.18,87.9763 1667.26,88.7299 1669.34,90.9891 1671.43,94.7489 1673.51,100.001 1675.59,106.734 1677.68,114.932 1679.76,124.577 1681.85,135.649 1683.93,148.122 
  1686.01,161.969 1688.1,177.158 1690.18,193.657 1692.26,211.429 1694.35,230.434 1696.43,250.629 1698.51,271.971 1700.6,294.412 1702.68,317.901 1704.76,342.388 
  1706.85,367.816 1708.93,394.131 1711.02,421.273 1713.1,449.183 1715.18,477.797 1717.27,507.054 1719.35,536.887 1721.43,567.231 1723.52,598.018 1725.6,629.18 
  1727.68,660.647 1729.77,692.351 1731.85,724.219 1733.93,756.183 1736.02,788.17 1738.1,820.109 1740.19,851.931 1742.27,883.563 1744.35,914.937 1746.44,945.981 
  1748.52,976.628 1750.6,1006.81 1752.69,1036.46 1754.77,1065.51 1756.85,1093.89 1758.94,1121.55 1761.02,1148.43 1763.1,1174.45 1765.19,1199.57 1767.27,1223.73 
  1769.36,1246.88 1771.44,1268.96 1773.52,1289.92 1775.61,1309.73 1777.69,1328.33 1779.77,1345.68 1781.86,1361.74 1783.94,1376.49 1786.02,1389.88 1788.11,1401.89 
  1790.19,1412.49 1792.27,1421.65 1794.36,1429.37 1796.44,1435.61 1798.53,1440.36 1800.61,1443.62 1802.69,1445.38 1804.78,1445.63 1806.86,1444.38 1808.94,1441.62 
  1811.03,1437.36 1813.11,1431.61 1815.19,1424.39 1817.28,1415.7 1819.36,1405.58 1821.44,1394.04 1823.53,1381.11 1825.61,1366.81 1827.7,1351.18 1829.78,1334.25 
  1831.86,1316.06 1833.95,1296.66 1836.03,1276.07 1838.11,1254.36 1840.2,1231.56 1842.28,1207.74 1844.36,1182.93 1846.45,1157.2 1848.53,1130.6 1850.61,1103.2 
  1852.7,1075.05 1854.78,1046.21 1856.87,1016.75 1858.95,986.744 1861.03,956.245 1863.12,925.325 1865.2,894.053 1867.28,862.5 1869.37,830.733 1871.45,798.825 
  1873.53,766.846 1875.62,734.867 1877.7,702.959 1879.78,671.192 1881.87,639.638 1883.95,608.367 1886.04,577.447 1888.12,546.948 1890.2,516.937 1892.29,487.481 
  1894.37,458.646 1896.45,430.494 1898.54,403.089 1900.62,376.492 1902.7,350.762 1904.79,325.955 1906.87,302.128 1908.95,279.332 1911.04,257.618 1913.12,237.035 
  1915.21,217.629 1917.29,199.442 1919.37,182.514 1921.46,166.884 1923.54,152.586 1925.62,139.652 1927.71,128.111 1929.79,117.987 1931.87,109.304 1933.96,102.081 
  1936.04,96.3343 1938.12,92.076 1940.21,89.3159 1942.29,88.06 1944.38,88.3113 1946.46,90.069 1948.54,93.3294 1950.63,98.0851 1952.71,104.326 1954.79,112.037 
  1956.88,121.203 1958.96,131.801 1961.04,143.81 1963.13,157.202 1965.21,171.948 1967.29,188.014 1969.38,205.366 1971.46,223.964 1973.55,243.768 1975.63,264.733 
  1977.71,286.813 1979.8,309.958 1981.88,334.118 1983.96,359.239 1986.05,385.265 1988.13,412.138 1990.21,439.798 1992.3,468.185 1994.38,497.234 1996.46,526.883 
  1998.55,557.064 2000.63,587.711 2002.72,618.755 2004.8,650.129 2006.88,681.761 2008.97,713.582 2011.05,745.522 2013.13,777.509 2015.22,809.473 2017.3,841.341 
  2019.38,873.045 2021.47,904.512 2023.55,935.674 2025.63,966.461 2027.72,996.805 2029.8,1026.64 2031.89,1055.89 2033.97,1084.51 2036.05,1112.42 2038.14,1139.56 
  2040.22,1165.88 2042.3,1191.3 2044.39,1215.79 2046.47,1239.28 2048.55,1261.72 2050.64,1283.06 2052.72,1303.26 2054.8,1322.26 2056.89,1340.03 2058.97,1356.53 
  2061.06,1371.72 2063.14,1385.57 2065.22,1398.04 2067.31,1409.11 2069.39,1418.76 2071.47,1426.96 2073.56,1433.69 2075.64,1438.94 2077.72,1442.7 2079.81,1444.96 
  2081.89,1445.72 2083.97,1444.96 2086.06,1442.7 2088.14,1438.94 2090.23,1433.69 2092.31,1426.96 2094.39,1418.76 2096.48,1409.11 2098.56,1398.04 2100.64,1385.57 
  2102.73,1371.72 2104.81,1356.53 2106.89,1340.03 2108.98,1322.26 2111.06,1303.26 2113.14,1283.06 2115.23,1261.72 2117.31,1239.28 2119.4,1215.79 2121.48,1191.3 
  2123.56,1165.88 2125.65,1139.56 2127.73,1112.42 2129.81,1084.51 2131.9,1055.89 2133.98,1026.64 2136.06,996.805 2138.15,966.461 2140.23,935.674 2142.31,904.512 
  2144.4,873.045 2146.48,841.341 2148.57,809.473 2150.65,777.509 2152.73,745.522 2154.82,713.582 2156.9,681.761 2158.98,650.129 2161.07,618.755 2163.15,587.711 
  2165.23,557.064 2167.32,526.883 2169.4,497.234 2171.48,468.185 2173.57,439.798 2175.65,412.138 2177.74,385.265 2179.82,359.239 2181.9,334.118 2183.99,309.958 
  2186.07,286.813 2188.15,264.733 2190.24,243.768 2192.32,223.964 2194.4,205.366 2196.49,188.014 2198.57,171.948 2200.66,157.202 2202.74,143.81 2204.82,131.801 
  2206.91,121.203 2208.99,112.037 2211.07,104.326 2213.16,98.0851 2215.24,93.3294 2217.32,90.069 2219.41,88.3113 2221.49,88.06 2223.57,89.3159 2225.66,92.076 
  2227.74,96.3343 2229.83,102.081 2231.91,109.304 2233.99,117.987 2236.08,128.111 2238.16,139.652 2240.24,152.586 2242.33,166.884 2244.41,182.514 2246.49,199.442 
  2248.58,217.629 2250.66,237.035 2252.74,257.618 2254.83,279.332 2256.91,302.128 2259,325.955 2261.08,350.762 2263.16,376.492 2265.25,403.089 2267.33,430.494 
  2269.41,458.646 2271.5,487.481 2273.58,516.937 2275.66,546.948 2277.75,577.447 2279.83,608.367 2281.91,639.638 2284,671.192 2286.08,702.959 2288.17,734.867 
  2290.25,766.846 
  "/>
<path clip-path="url(#clip720)" d="
M1850.15 337.138 L2279.14 337.138 L2279.14 95.2176 L1850.15 95.2176  Z
  " fill="#ffffff" fill-rule="evenodd" fill-opacity="1"/>
<polyline clip-path="url(#clip720)" style="stroke:#000000; stroke-width:4; stroke-opacity:1; fill:none" points="
  1850.15,337.138 2279.14,337.138 2279.14,95.2176 1850.15,95.2176 1850.15,337.138 
  "/>
<polyline clip-path="url(#clip720)" style="stroke:#009af9; stroke-width:4; stroke-opacity:1; fill:none" points="
  1874.69,155.698 2021.93,155.698 
  "/>
<path clip-path="url(#clip720)" d="M 0 0 M2053.88 139.691 L2053.88 147.052 L2062.65 147.052 L2062.65 150.362 L2053.88 150.362 L2053.88 164.436 Q2053.88 167.607 2054.73 168.51 Q2055.61 169.413 2058.28 169.413 L2062.65 169.413 L2062.65 172.978 L2058.28 172.978 Q2053.34 172.978 2051.47 171.149 Q2049.59 169.297 2049.59 164.436 L2049.59 150.362 L2046.47 150.362 L2046.47 147.052 L2049.59 147.052 L2049.59 139.691 L2053.88 139.691 Z" fill="#000000" fill-rule="evenodd" fill-opacity="1" /><path clip-path="url(#clip720)" d="M 0 0 M2082.14 151.033 Q2081.42 150.617 2080.57 150.431 Q2079.73 150.223 2078.71 150.223 Q2075.1 150.223 2073.16 152.584 Q2071.24 154.922 2071.24 159.32 L2071.24 172.978 L2066.96 172.978 L2066.96 147.052 L2071.24 147.052 L2071.24 151.08 Q2072.58 148.718 2074.73 147.584 Q2076.89 146.427 2079.96 146.427 Q2080.4 146.427 2080.94 146.496 Q2081.47 146.543 2082.12 146.658 L2082.14 151.033 Z" fill="#000000" fill-rule="evenodd" fill-opacity="1" /><path clip-path="url(#clip720)" d="M 0 0 M2086.17 162.746 L2086.17 147.052 L2090.43 147.052 L2090.43 162.584 Q2090.43 166.265 2091.86 168.116 Q2093.3 169.945 2096.17 169.945 Q2099.62 169.945 2101.61 167.746 Q2103.62 165.547 2103.62 161.751 L2103.62 147.052 L2107.88 147.052 L2107.88 172.978 L2103.62 172.978 L2103.62 168.996 Q2102.07 171.357 2100.01 172.515 Q2097.97 173.649 2095.27 173.649 Q2090.8 173.649 2088.48 170.871 Q2086.17 168.093 2086.17 162.746 M2096.89 146.427 L2096.89 146.427 Z" fill="#000000" fill-rule="evenodd" fill-opacity="1" /><path clip-path="url(#clip720)" d="M 0 0 M2134.52 158.95 L2134.52 161.033 L2114.94 161.033 Q2115.22 165.431 2117.58 167.746 Q2119.96 170.038 2124.2 170.038 Q2126.65 170.038 2128.95 169.436 Q2131.26 168.834 2133.53 167.63 L2133.53 171.658 Q2131.24 172.63 2128.83 173.14 Q2126.42 173.649 2123.95 173.649 Q2117.74 173.649 2114.11 170.038 Q2110.5 166.427 2110.5 160.269 Q2110.5 153.904 2113.92 150.177 Q2117.37 146.427 2123.21 146.427 Q2128.44 146.427 2131.47 149.806 Q2134.52 153.163 2134.52 158.95 M2130.27 157.7 Q2130.22 154.205 2128.3 152.121 Q2126.4 150.038 2123.25 150.038 Q2119.69 150.038 2117.53 152.052 Q2115.4 154.066 2115.08 157.723 L2130.27 157.7 Z" fill="#000000" fill-rule="evenodd" fill-opacity="1" /><polyline clip-path="url(#clip720)" style="stroke:#e26f46; stroke-width:4; stroke-opacity:1; fill:none" points="
  1874.69,216.178 2021.93,216.178 
  "/>
<path clip-path="url(#clip720)" d="M 0 0 M2070.5 219.43 L2070.5 221.513 L2050.91 221.513 Q2051.19 225.911 2053.55 228.226 Q2055.94 230.518 2060.17 230.518 Q2062.63 230.518 2064.92 229.916 Q2067.23 229.314 2069.5 228.11 L2069.5 232.138 Q2067.21 233.11 2064.8 233.62 Q2062.4 234.129 2059.92 234.129 Q2053.71 234.129 2050.08 230.518 Q2046.47 226.907 2046.47 220.749 Q2046.47 214.384 2049.9 210.657 Q2053.34 206.907 2059.18 206.907 Q2064.41 206.907 2067.44 210.286 Q2070.5 213.643 2070.5 219.43 M2066.24 218.18 Q2066.19 214.685 2064.27 212.601 Q2062.37 210.518 2059.22 210.518 Q2055.66 210.518 2053.51 212.532 Q2051.38 214.546 2051.05 218.203 L2066.24 218.18 Z" fill="#000000" fill-rule="evenodd" fill-opacity="1" /><path clip-path="url(#clip720)" d="M 0 0 M2091.49 208.296 L2091.49 212.323 Q2089.69 211.397 2087.74 210.935 Q2085.8 210.472 2083.71 210.472 Q2080.54 210.472 2078.95 211.444 Q2077.37 212.416 2077.37 214.36 Q2077.37 215.842 2078.51 216.698 Q2079.64 217.532 2083.07 218.296 L2084.52 218.62 Q2089.06 219.592 2090.96 221.374 Q2092.88 223.134 2092.88 226.305 Q2092.88 229.916 2090.01 232.022 Q2087.16 234.129 2082.16 234.129 Q2080.08 234.129 2077.81 233.712 Q2075.57 233.319 2073.07 232.508 L2073.07 228.11 Q2075.43 229.337 2077.72 229.962 Q2080.01 230.564 2082.26 230.564 Q2085.27 230.564 2086.89 229.546 Q2088.51 228.504 2088.51 226.629 Q2088.51 224.893 2087.33 223.967 Q2086.17 223.041 2082.21 222.184 L2080.73 221.837 Q2076.77 221.004 2075.01 219.291 Q2073.25 217.555 2073.25 214.546 Q2073.25 210.888 2075.84 208.898 Q2078.44 206.907 2083.21 206.907 Q2085.57 206.907 2087.65 207.254 Q2089.73 207.601 2091.49 208.296 Z" fill="#000000" fill-rule="evenodd" fill-opacity="1" /><path clip-path="url(#clip720)" d="M 0 0 M2101.56 200.171 L2101.56 207.532 L2110.33 207.532 L2110.33 210.842 L2101.56 210.842 L2101.56 224.916 Q2101.56 228.087 2102.42 228.99 Q2103.3 229.893 2105.96 229.893 L2110.33 229.893 L2110.33 233.458 L2105.96 233.458 Q2101.03 233.458 2099.15 231.629 Q2097.28 229.777 2097.28 224.916 L2097.28 210.842 L2094.15 210.842 L2094.15 207.532 L2097.28 207.532 L2097.28 200.171 L2101.56 200.171 Z" fill="#000000" fill-rule="evenodd" fill-opacity="1" /><path clip-path="url(#clip720)" d="M 0 0 M2114.8 207.532 L2119.06 207.532 L2119.06 233.458 L2114.8 233.458 L2114.8 207.532 M2114.8 197.439 L2119.06 197.439 L2119.06 202.833 L2114.8 202.833 L2114.8 197.439 Z" fill="#000000" fill-rule="evenodd" fill-opacity="1" /><path clip-path="url(#clip720)" d="M 0 0 M2143.71 212.509 Q2145.31 209.638 2147.53 208.273 Q2149.76 206.907 2152.77 206.907 Q2156.82 206.907 2159.02 209.754 Q2161.21 212.578 2161.21 217.809 L2161.21 233.458 L2156.93 233.458 L2156.93 217.948 Q2156.93 214.222 2155.61 212.416 Q2154.29 210.61 2151.58 210.61 Q2148.27 210.61 2146.35 212.81 Q2144.43 215.009 2144.43 218.805 L2144.43 233.458 L2140.15 233.458 L2140.15 217.948 Q2140.15 214.198 2138.83 212.416 Q2137.51 210.61 2134.76 210.61 Q2131.49 210.61 2129.57 212.833 Q2127.65 215.032 2127.65 218.805 L2127.65 233.458 L2123.37 233.458 L2123.37 207.532 L2127.65 207.532 L2127.65 211.56 Q2129.11 209.175 2131.15 208.041 Q2133.18 206.907 2135.98 206.907 Q2138.81 206.907 2140.77 208.342 Q2142.77 209.777 2143.71 212.509 Z" fill="#000000" fill-rule="evenodd" fill-opacity="1" /><path clip-path="url(#clip720)" d="M 0 0 M2177.46 220.425 Q2172.3 220.425 2170.31 221.606 Q2168.32 222.786 2168.32 225.634 Q2168.32 227.902 2169.8 229.245 Q2171.31 230.564 2173.88 230.564 Q2177.42 230.564 2179.55 228.064 Q2181.7 225.541 2181.7 221.374 L2181.7 220.425 L2177.46 220.425 M2185.96 218.666 L2185.96 233.458 L2181.7 233.458 L2181.7 229.522 Q2180.24 231.883 2178.07 233.018 Q2175.89 234.129 2172.74 234.129 Q2168.76 234.129 2166.4 231.907 Q2164.06 229.661 2164.06 225.911 Q2164.06 221.536 2166.98 219.314 Q2169.92 217.092 2175.73 217.092 L2181.7 217.092 L2181.7 216.675 Q2181.7 213.735 2179.76 212.138 Q2177.83 210.518 2174.34 210.518 Q2172.12 210.518 2170.01 211.05 Q2167.9 211.583 2165.96 212.647 L2165.96 208.712 Q2168.3 207.81 2170.5 207.37 Q2172.7 206.907 2174.78 206.907 Q2180.4 206.907 2183.18 209.823 Q2185.96 212.74 2185.96 218.666 Z" fill="#000000" fill-rule="evenodd" fill-opacity="1" /><path clip-path="url(#clip720)" d="M 0 0 M2194.64 200.171 L2194.64 207.532 L2203.41 207.532 L2203.41 210.842 L2194.64 210.842 L2194.64 224.916 Q2194.64 228.087 2195.5 228.99 Q2196.38 229.893 2199.04 229.893 L2203.41 229.893 L2203.41 233.458 L2199.04 233.458 Q2194.11 233.458 2192.23 231.629 Q2190.36 229.777 2190.36 224.916 L2190.36 210.842 L2187.23 210.842 L2187.23 207.532 L2190.36 207.532 L2190.36 200.171 L2194.64 200.171 Z" fill="#000000" fill-rule="evenodd" fill-opacity="1" /><path clip-path="url(#clip720)" d="M 0 0 M2230.06 219.43 L2230.06 221.513 L2210.47 221.513 Q2210.75 225.911 2213.11 228.226 Q2215.5 230.518 2219.73 230.518 Q2222.19 230.518 2224.48 229.916 Q2226.79 229.314 2229.06 228.11 L2229.06 232.138 Q2226.77 233.11 2224.36 233.62 Q2221.95 234.129 2219.48 234.129 Q2213.27 234.129 2209.64 230.518 Q2206.03 226.907 2206.03 220.749 Q2206.03 214.384 2209.45 210.657 Q2212.9 206.907 2218.74 206.907 Q2223.97 206.907 2227 210.286 Q2230.06 213.643 2230.06 219.43 M2225.8 218.18 Q2225.75 214.685 2223.83 212.601 Q2221.93 210.518 2218.78 210.518 Q2215.22 210.518 2213.07 212.532 Q2210.94 214.546 2210.61 218.203 L2225.8 218.18 Z" fill="#000000" fill-rule="evenodd" fill-opacity="1" /><polyline clip-path="url(#clip720)" style="stroke:#3da44d; stroke-width:4; stroke-opacity:1; fill:none" points="
  1874.69,276.658 2021.93,276.658 
  "/>
<path clip-path="url(#clip720)" d="M 0 0 M2062.97 257.919 L2062.97 261.461 L2058.9 261.461 Q2056.61 261.461 2055.71 262.387 Q2054.83 263.313 2054.83 265.72 L2054.83 268.012 L2061.84 268.012 L2061.84 271.322 L2054.83 271.322 L2054.83 293.938 L2050.54 293.938 L2050.54 271.322 L2046.47 271.322 L2046.47 268.012 L2050.54 268.012 L2050.54 266.206 Q2050.54 261.878 2052.56 259.91 Q2054.57 257.919 2058.95 257.919 L2062.97 257.919 Z" fill="#000000" fill-rule="evenodd" fill-opacity="1" /><path clip-path="url(#clip720)" d="M 0 0 M2067.44 268.012 L2071.7 268.012 L2071.7 293.938 L2067.44 293.938 L2067.44 268.012 M2067.44 257.919 L2071.7 257.919 L2071.7 263.313 L2067.44 263.313 L2067.44 257.919 Z" fill="#000000" fill-rule="evenodd" fill-opacity="1" /><path clip-path="url(#clip720)" d="M 0 0 M2080.38 260.651 L2080.38 268.012 L2089.15 268.012 L2089.15 271.322 L2080.38 271.322 L2080.38 285.396 Q2080.38 288.567 2081.24 289.47 Q2082.12 290.373 2084.78 290.373 L2089.15 290.373 L2089.15 293.938 L2084.78 293.938 Q2079.85 293.938 2077.97 292.109 Q2076.1 290.257 2076.1 285.396 L2076.1 271.322 L2072.97 271.322 L2072.97 268.012 L2076.1 268.012 L2076.1 260.651 L2080.38 260.651 Z" fill="#000000" fill-rule="evenodd" fill-opacity="1" /></svg>
